<svg id="svg" version="1.1" xmlns="http://www.w3.org/2000/svg" xmlns:xlink="http://www.w3.org/1999/xlink" width="400" height="400" viewBox="0, 0, 400,400"><g id="svgg"><path id="path0" d="M119.573 73.583 C 109.972 75.318,104.508 86.865,109.061 95.800 C 113.861 105.221,126.956 107.031,134.062 99.256 C 144.263 88.095,134.546 70.877,119.573 73.583 M111.200 207.406 L 111.200 290.812 122.900 290.706 L 134.600 290.600 134.701 207.300 L 134.802 124.000 123.001 124.000 L 111.200 124.000 111.200 207.406 M170.400 207.400 L 170.400 290.800 204.700 290.798 C 224.800 290.797,241.318 290.623,244.600 290.377 C 294.397 286.645,329.348 244.760,323.186 196.200 C 322.740 192.680,322.123 188.990,321.815 188.000 C 321.508 187.010,321.138 185.570,320.993 184.800 C 319.601 177.396,313.002 163.837,306.952 155.946 C 298.462 144.873,283.652 133.771,273.130 130.592 C 272.619 130.438,271.660 130.077,271.000 129.792 C 259.336 124.743,251.130 124.000,207.043 124.000 L 170.400 124.000 170.400 207.400 M247.600 146.354 C 262.779 149.139,272.947 153.978,282.138 162.791 C 302.894 182.692,305.638 218.138,288.408 243.800 C 281.262 254.444,265.833 264.915,254.200 267.016 C 253.320 267.175,252.330 267.443,252.000 267.612 C 249.221 269.033,238.168 269.619,216.200 269.509 L 194.200 269.400 194.099 207.277 L 193.997 145.155 218.299 145.296 C 241.586 145.431,242.809 145.475,247.600 146.354 " stroke="none" fill="#fbfbfb" fill-rule="evenodd"></path><path id="path1" d="M184.400 0.213 C 183.850 0.287,180.610 0.563,177.200 0.826 C 173.790 1.089,170.910 1.427,170.800 1.576 C 170.637 1.797,162.245 3.111,160.000 3.267 C 159.670 3.290,159.220 3.441,159.000 3.602 C 158.780 3.762,157.115 4.120,155.300 4.396 C 153.485 4.672,152.000 5.021,152.000 5.171 C 152.000 5.321,150.662 5.669,149.026 5.944 C 147.390 6.219,145.995 6.569,145.926 6.722 C 145.857 6.875,144.360 7.385,142.600 7.857 C 136.677 9.442,134.602 10.072,134.195 10.407 C 133.972 10.591,132.937 10.955,131.895 11.218 C 130.853 11.480,130.000 11.831,130.000 11.997 C 130.000 12.164,129.460 12.408,128.800 12.540 C 128.140 12.672,126.835 13.123,125.900 13.542 C 124.965 13.962,123.750 14.441,123.200 14.608 C 122.650 14.775,121.573 15.247,120.806 15.656 C 120.039 16.065,119.263 16.400,119.081 16.400 C 118.618 16.400,114.243 18.474,114.000 18.809 C 113.890 18.960,113.128 19.303,112.306 19.571 C 111.484 19.839,110.706 20.228,110.578 20.436 C 110.450 20.643,110.177 20.709,109.972 20.583 C 109.768 20.456,109.600 20.536,109.600 20.760 C 109.600 20.984,108.880 21.384,108.000 21.647 C 107.120 21.911,106.400 22.264,106.400 22.432 C 106.400 22.600,105.770 22.946,105.000 23.200 C 104.230 23.454,103.600 23.809,103.600 23.988 C 103.600 24.167,102.925 24.604,102.100 24.959 C 100.640 25.587,98.414 26.781,97.200 27.587 C 94.756 29.210,93.657 29.871,92.700 30.295 C 92.095 30.563,91.600 30.967,91.600 31.191 C 91.600 31.416,91.392 31.600,91.138 31.600 C 90.884 31.600,90.086 32.050,89.364 32.600 C 88.643 33.150,87.856 33.600,87.614 33.600 C 87.373 33.600,87.071 33.870,86.945 34.200 C 86.818 34.530,86.509 34.807,86.257 34.816 C 86.006 34.825,85.177 35.365,84.415 36.016 C 83.653 36.667,82.859 37.200,82.649 37.200 C 82.439 37.200,81.982 37.462,81.634 37.781 C 79.645 39.606,79.181 39.982,78.400 40.400 C 77.496 40.884,76.598 41.606,75.044 43.100 C 74.530 43.595,73.948 44.000,73.751 44.000 C 73.555 44.000,72.839 44.606,72.159 45.346 C 71.480 46.086,70.727 46.761,70.486 46.846 C 68.783 47.445,47.445 68.783,46.846 70.486 C 46.761 70.727,46.086 71.480,45.346 72.159 C 44.606 72.839,44.000 73.555,44.000 73.751 C 44.000 73.948,43.595 74.530,43.100 75.044 C 41.606 76.598,40.884 77.496,40.400 78.400 C 39.982 79.181,39.606 79.645,37.781 81.634 C 37.462 81.982,37.200 82.439,37.200 82.649 C 37.200 82.859,36.667 83.653,36.016 84.415 C 35.365 85.177,34.825 86.006,34.816 86.257 C 34.807 86.509,34.530 86.818,34.200 86.945 C 33.870 87.071,33.600 87.373,33.600 87.614 C 33.600 87.856,33.150 88.643,32.600 89.364 C 32.050 90.086,31.600 90.884,31.600 91.138 C 31.600 91.392,31.416 91.600,31.191 91.600 C 30.967 91.600,30.563 92.095,30.295 92.700 C 29.871 93.657,29.210 94.756,27.587 97.200 C 26.781 98.414,25.587 100.640,24.959 102.100 C 24.604 102.925,24.167 103.600,23.988 103.600 C 23.809 103.600,23.454 104.230,23.200 105.000 C 22.946 105.770,22.600 106.400,22.432 106.400 C 22.264 106.400,21.911 107.120,21.647 108.000 C 21.384 108.880,20.984 109.600,20.760 109.600 C 20.536 109.600,20.456 109.768,20.583 109.972 C 20.709 110.177,20.643 110.450,20.436 110.578 C 20.228 110.706,19.839 111.484,19.571 112.306 C 19.303 113.128,18.960 113.890,18.809 114.000 C 18.474 114.243,16.400 118.618,16.400 119.081 C 16.400 119.263,16.065 120.039,15.656 120.806 C 15.247 121.573,14.775 122.650,14.608 123.200 C 14.441 123.750,13.962 124.965,13.542 125.900 C 13.123 126.835,12.672 128.140,12.540 128.800 C 12.408 129.460,12.160 130.000,11.990 130.000 C 11.819 130.000,11.464 130.901,11.200 132.001 C 10.936 133.102,10.576 134.091,10.400 134.200 C 10.224 134.309,9.858 135.343,9.587 136.499 C 9.315 137.654,8.871 139.050,8.600 139.600 C 8.329 140.150,7.870 141.815,7.580 143.300 C 7.290 144.785,6.918 146.000,6.753 146.000 C 6.587 146.000,6.225 147.350,5.948 149.000 C 5.671 150.650,5.321 152.000,5.171 152.000 C 5.021 152.000,4.672 153.485,4.396 155.300 C 4.119 157.115,3.784 158.780,3.649 159.000 C 3.515 159.220,3.361 159.760,3.307 160.200 C 2.710 165.039,1.799 170.641,1.583 170.800 C -0.240 172.141,-0.240 227.859,1.583 229.200 C 1.799 229.359,2.710 234.961,3.307 239.800 C 3.361 240.240,3.515 240.780,3.649 241.000 C 3.784 241.220,4.119 242.885,4.396 244.700 C 4.672 246.515,5.017 248.000,5.162 248.000 C 5.307 248.000,5.667 249.305,5.960 250.900 C 6.254 252.495,6.608 253.890,6.747 254.000 C 6.886 254.110,7.385 255.640,7.857 257.400 C 9.442 263.323,10.072 265.398,10.407 265.805 C 10.591 266.028,10.955 267.063,11.218 268.105 C 11.480 269.147,11.831 270.000,11.997 270.000 C 12.164 270.000,12.408 270.540,12.540 271.200 C 12.672 271.860,13.144 273.200,13.590 274.178 C 14.035 275.156,14.400 276.089,14.400 276.252 C 14.400 276.414,14.740 277.279,15.155 278.174 C 16.988 282.119,17.924 284.263,18.179 285.100 C 18.330 285.595,18.593 286.000,18.764 286.000 C 18.934 286.000,19.289 286.720,19.553 287.600 C 19.816 288.480,20.199 289.200,20.404 289.200 C 20.608 289.200,20.671 289.470,20.545 289.800 C 20.418 290.130,20.485 290.400,20.693 290.400 C 20.902 290.400,21.310 291.120,21.600 292.000 C 21.890 292.880,22.262 293.600,22.425 293.600 C 22.588 293.600,22.928 294.095,23.181 294.700 C 23.433 295.305,24.260 296.880,25.018 298.200 C 25.776 299.520,26.574 301.010,26.792 301.511 C 27.010 302.011,27.373 302.641,27.600 302.911 C 28.190 303.612,29.703 306.013,30.368 307.300 C 30.680 307.905,31.085 308.400,31.268 308.400 C 31.450 308.400,31.600 308.608,31.600 308.862 C 31.600 309.116,32.050 309.914,32.600 310.636 C 33.150 311.357,33.600 312.144,33.600 312.386 C 33.600 312.627,33.870 312.929,34.200 313.055 C 34.530 313.182,34.807 313.491,34.816 313.743 C 34.825 313.994,35.365 314.823,36.016 315.585 C 36.667 316.347,37.200 317.141,37.200 317.351 C 37.200 317.561,37.467 318.018,37.792 318.366 C 39.306 319.985,40.400 321.342,40.400 321.600 C 40.400 321.756,40.849 322.404,41.398 323.042 C 41.946 323.679,42.801 324.699,43.298 325.308 C 43.794 325.918,44.770 327.043,45.467 327.808 C 46.163 328.574,46.793 329.369,46.867 329.576 C 47.437 331.185,68.815 352.563,70.424 353.133 C 70.631 353.207,71.426 353.837,72.192 354.533 C 72.957 355.230,74.082 356.206,74.692 356.702 C 75.301 357.199,76.321 358.054,76.958 358.602 C 77.596 359.151,78.244 359.600,78.400 359.600 C 78.658 359.600,80.015 360.694,81.634 362.208 C 81.982 362.533,82.406 362.800,82.576 362.800 C 82.746 362.800,83.567 363.340,84.400 364.000 C 85.233 364.660,86.114 365.200,86.358 365.200 C 86.601 365.200,86.800 365.386,86.800 365.613 C 86.800 365.839,87.115 366.141,87.500 366.283 C 87.885 366.425,88.757 366.959,89.438 367.471 C 90.119 367.982,90.884 368.400,91.138 368.400 C 91.392 368.400,91.600 368.550,91.600 368.732 C 91.600 368.915,92.095 369.320,92.700 369.632 C 93.987 370.297,96.388 371.810,97.089 372.400 C 97.359 372.627,97.989 372.990,98.489 373.208 C 98.990 373.426,100.480 374.211,101.800 374.953 C 106.000 377.312,112.982 380.803,113.500 380.801 C 113.775 380.801,114.000 380.968,114.000 381.173 C 114.000 381.378,114.405 381.670,114.900 381.821 C 115.737 382.076,117.881 383.012,121.826 384.845 C 122.721 385.260,123.666 385.600,123.928 385.600 C 124.189 385.600,125.074 385.960,125.894 386.399 C 126.714 386.839,127.974 387.309,128.693 387.444 C 129.412 387.579,130.000 387.827,130.000 387.995 C 130.000 388.163,130.540 388.408,131.200 388.540 C 131.860 388.672,133.165 389.124,134.100 389.545 C 135.035 389.965,136.430 390.441,137.200 390.601 C 137.970 390.761,138.780 391.030,139.000 391.198 C 139.220 391.365,140.840 391.832,142.600 392.235 C 144.360 392.638,145.890 393.083,146.000 393.226 C 146.110 393.368,147.460 393.722,149.000 394.013 C 150.540 394.304,151.989 394.682,152.221 394.854 C 152.452 395.026,153.982 395.381,155.621 395.643 C 157.259 395.905,158.780 396.255,159.000 396.421 C 159.220 396.587,161.830 397.025,164.800 397.395 C 167.770 397.765,170.560 398.225,171.000 398.416 C 175.340 400.307,224.660 400.307,229.000 398.416 C 229.440 398.225,232.230 397.765,235.200 397.395 C 238.170 397.025,240.780 396.584,241.000 396.414 C 241.220 396.245,242.885 395.880,244.700 395.604 C 246.515 395.328,248.000 394.980,248.000 394.831 C 248.000 394.681,249.350 394.319,251.000 394.026 C 252.650 393.733,254.000 393.370,254.000 393.220 C 254.000 393.070,255.215 392.712,256.700 392.426 C 258.185 392.140,259.940 391.667,260.600 391.376 C 261.260 391.085,262.550 390.653,263.467 390.417 C 264.383 390.181,265.643 389.721,266.267 389.396 C 266.890 389.070,267.985 388.693,268.700 388.558 C 269.415 388.422,270.000 388.173,270.000 388.005 C 270.000 387.837,270.540 387.592,271.200 387.460 C 271.860 387.328,273.200 386.856,274.178 386.410 C 275.156 385.965,276.089 385.600,276.252 385.600 C 276.414 385.600,277.279 385.260,278.174 384.845 C 282.119 383.012,284.263 382.076,285.100 381.821 C 285.595 381.670,286.000 381.415,286.000 381.256 C 286.000 381.096,286.990 380.629,288.200 380.218 C 289.410 379.807,290.400 379.348,290.400 379.199 C 290.400 379.050,291.120 378.690,292.000 378.400 C 292.880 378.110,293.600 377.738,293.600 377.575 C 293.600 377.412,294.095 377.072,294.700 376.819 C 295.305 376.567,296.880 375.740,298.200 374.982 C 299.520 374.224,301.010 373.426,301.511 373.208 C 302.011 372.990,302.641 372.627,302.911 372.400 C 303.612 371.810,306.013 370.297,307.300 369.632 C 307.905 369.320,308.400 368.915,308.400 368.732 C 308.400 368.550,308.608 368.400,308.862 368.400 C 309.116 368.400,309.914 367.950,310.636 367.400 C 311.357 366.850,312.130 366.400,312.353 366.400 C 312.577 366.400,312.904 366.175,313.080 365.900 C 313.425 365.361,317.058 362.800,317.478 362.800 C 317.618 362.800,318.018 362.533,318.366 362.208 C 319.985 360.694,321.342 359.600,321.600 359.600 C 321.756 359.600,322.404 359.151,323.042 358.602 C 323.679 358.054,324.699 357.199,325.308 356.702 C 325.918 356.206,327.043 355.230,327.808 354.533 C 328.574 353.837,329.369 353.207,329.576 353.133 C 331.185 352.563,352.563 331.185,353.133 329.576 C 353.207 329.369,353.837 328.574,354.533 327.808 C 355.230 327.043,356.206 325.918,356.702 325.308 C 357.199 324.699,358.054 323.679,358.602 323.042 C 359.151 322.404,359.600 321.756,359.600 321.600 C 359.600 321.342,360.694 319.985,362.208 318.366 C 362.533 318.018,362.800 317.618,362.800 317.478 C 362.800 317.058,365.361 313.425,365.900 313.080 C 366.175 312.904,366.400 312.577,366.400 312.353 C 366.400 312.130,366.850 311.357,367.400 310.636 C 367.950 309.914,368.400 309.116,368.400 308.862 C 368.400 308.608,368.550 308.400,368.732 308.400 C 368.915 308.400,369.320 307.905,369.632 307.300 C 370.240 306.122,371.778 303.657,372.316 303.000 C 372.648 302.594,373.456 301.095,374.905 298.200 C 375.345 297.320,375.823 296.510,375.967 296.400 C 376.110 296.290,376.851 294.940,377.614 293.400 C 378.376 291.860,379.107 290.510,379.237 290.400 C 379.367 290.290,379.810 289.300,380.222 288.200 C 380.633 287.100,381.202 285.962,381.485 285.671 C 381.768 285.381,382.000 284.965,382.000 284.747 C 382.000 284.388,382.567 283.078,384.845 278.174 C 385.260 277.279,385.600 276.414,385.600 276.252 C 385.600 276.089,385.965 275.156,386.410 274.178 C 386.856 273.200,387.328 271.860,387.460 271.200 C 387.592 270.540,387.835 270.000,388.000 270.000 C 388.165 270.000,388.408 269.460,388.540 268.800 C 388.672 268.140,389.124 266.835,389.545 265.900 C 389.965 264.965,390.441 263.570,390.601 262.800 C 390.761 262.030,391.030 261.220,391.198 261.000 C 391.365 260.780,391.832 259.160,392.235 257.400 C 392.638 255.640,393.088 254.110,393.236 254.000 C 393.385 253.890,393.746 252.495,394.040 250.900 C 394.333 249.305,394.693 248.000,394.838 248.000 C 394.983 248.000,395.328 246.515,395.604 244.700 C 395.880 242.885,396.245 241.220,396.414 241.000 C 396.584 240.780,397.025 238.170,397.395 235.200 C 397.765 232.230,398.225 229.440,398.416 229.000 C 400.307 224.660,400.307 175.340,398.416 171.000 C 398.225 170.560,397.765 167.770,397.395 164.800 C 397.025 161.830,396.584 159.220,396.414 159.000 C 396.245 158.780,395.880 157.115,395.604 155.300 C 395.328 153.485,394.983 152.000,394.838 152.000 C 394.693 152.000,394.333 150.695,394.040 149.100 C 393.746 147.505,393.385 146.110,393.236 146.000 C 393.088 145.890,392.638 144.360,392.235 142.600 C 391.832 140.840,391.368 139.220,391.204 139.000 C 391.039 138.780,390.683 137.654,390.412 136.499 C 390.141 135.343,389.776 134.309,389.600 134.200 C 389.424 134.091,389.064 133.102,388.800 132.001 C 388.536 130.901,388.181 130.000,388.010 130.000 C 387.840 130.000,387.592 129.460,387.460 128.800 C 387.328 128.140,386.856 126.800,386.410 125.822 C 385.965 124.844,385.600 123.911,385.600 123.748 C 385.600 123.586,385.260 122.721,384.845 121.826 C 383.012 117.881,382.076 115.737,381.821 114.900 C 381.670 114.405,381.415 114.000,381.256 114.000 C 381.096 114.000,380.629 113.010,380.218 111.800 C 379.807 110.590,379.327 109.600,379.151 109.600 C 378.976 109.600,378.616 108.880,378.353 108.000 C 378.089 107.120,377.736 106.400,377.568 106.400 C 377.400 106.400,377.054 105.770,376.800 105.000 C 376.546 104.230,376.191 103.600,376.012 103.600 C 375.833 103.600,375.396 102.925,375.041 102.100 C 374.413 100.640,373.219 98.414,372.413 97.200 C 370.999 95.070,370.128 93.660,369.632 92.700 C 369.320 92.095,368.915 91.600,368.732 91.600 C 368.550 91.600,368.400 91.392,368.400 91.138 C 368.400 90.884,367.950 90.086,367.400 89.364 C 366.850 88.643,366.400 87.856,366.400 87.614 C 366.400 87.373,366.130 87.071,365.800 86.945 C 365.470 86.818,365.200 86.535,365.200 86.315 C 365.200 86.095,364.660 85.233,364.000 84.400 C 363.340 83.567,362.800 82.746,362.800 82.576 C 362.800 82.406,362.538 81.982,362.219 81.634 C 360.394 79.645,360.018 79.181,359.600 78.400 C 359.116 77.496,358.394 76.598,356.900 75.044 C 356.405 74.530,356.000 73.948,356.000 73.751 C 356.000 73.555,355.394 72.839,354.654 72.159 C 353.914 71.480,353.239 70.732,353.154 70.498 C 352.483 68.644,331.356 47.517,329.502 46.846 C 329.268 46.761,328.520 46.086,327.841 45.346 C 327.161 44.606,326.445 44.000,326.249 44.000 C 326.052 44.000,325.470 43.595,324.956 43.100 C 323.402 41.606,322.504 40.884,321.600 40.400 C 320.819 39.982,320.355 39.606,318.366 37.781 C 318.018 37.462,317.561 37.200,317.351 37.200 C 317.141 37.200,316.347 36.667,315.585 36.016 C 314.823 35.365,313.994 34.825,313.743 34.816 C 313.491 34.807,313.182 34.530,313.055 34.200 C 312.929 33.870,312.627 33.600,312.386 33.600 C 312.144 33.600,311.357 33.150,310.636 32.600 C 309.914 32.050,309.116 31.600,308.862 31.600 C 308.608 31.600,308.400 31.416,308.400 31.191 C 308.400 30.967,307.905 30.563,307.300 30.295 C 306.343 29.871,305.244 29.210,302.800 27.587 C 301.586 26.781,299.360 25.587,297.900 24.959 C 297.075 24.604,296.400 24.167,296.400 23.988 C 296.400 23.809,295.770 23.454,295.000 23.200 C 294.230 22.946,293.600 22.601,293.600 22.433 C 293.600 22.265,292.880 21.890,292.000 21.600 C 291.120 21.310,290.400 20.950,290.400 20.801 C 290.400 20.652,289.410 20.193,288.200 19.782 C 286.990 19.371,286.000 18.904,286.000 18.744 C 286.000 18.585,285.595 18.330,285.100 18.179 C 284.263 17.924,282.119 16.988,278.174 15.155 C 277.279 14.740,276.414 14.400,276.252 14.400 C 276.089 14.400,275.156 14.035,274.178 13.590 C 273.200 13.144,271.860 12.672,271.200 12.540 C 270.540 12.408,270.000 12.166,270.000 12.002 C 270.000 11.838,269.145 11.473,268.100 11.190 C 267.055 10.907,266.018 10.537,265.795 10.368 C 265.572 10.198,264.492 9.840,263.395 9.571 C 262.298 9.303,260.950 8.863,260.400 8.595 C 259.850 8.327,258.185 7.870,256.700 7.580 C 255.215 7.290,254.000 6.930,254.000 6.780 C 254.000 6.630,252.650 6.267,251.000 5.974 C 249.350 5.681,248.000 5.319,248.000 5.169 C 248.000 5.020,246.515 4.672,244.700 4.396 C 242.885 4.119,241.220 3.784,241.000 3.649 C 240.780 3.515,240.240 3.361,239.800 3.307 C 234.926 2.706,229.359 1.798,229.200 1.578 C 228.549 0.681,189.716 -0.503,184.400 0.213 M129.874 74.316 C 145.041 82.099,139.787 104.581,122.800 104.584 C 104.328 104.588,100.736 78.925,118.400 73.153 C 120.905 72.334,127.270 72.979,129.874 74.316 M135.101 207.300 L 135.202 291.200 122.801 291.200 L 110.400 291.200 110.400 207.467 C 110.400 161.413,110.523 123.611,110.672 123.461 C 110.822 123.311,116.357 123.236,122.972 123.294 L 135.000 123.400 135.101 207.300 M248.600 123.924 C 249.920 124.188,252.620 124.660,254.600 124.974 C 265.266 126.664,277.810 131.125,285.378 135.919 C 289.974 138.831,291.211 139.684,293.600 141.587 C 309.992 154.645,321.658 175.596,323.642 195.537 C 323.853 197.662,324.200 200.605,324.413 202.077 C 325.078 206.681,324.995 208.196,323.430 220.000 C 320.436 242.573,306.917 263.599,286.812 276.950 C 284.948 278.187,283.208 279.200,282.945 279.200 C 282.682 279.200,282.407 279.349,282.333 279.530 C 282.165 279.949,276.533 282.812,273.162 284.193 C 266.228 287.034,260.618 288.581,250.200 290.525 C 248.536 290.836,235.835 290.977,208.800 290.987 L 169.800 291.000 169.697 207.600 C 169.641 161.730,169.684 123.966,169.793 123.680 C 170.066 122.960,244.933 123.193,248.600 123.924 M194.400 207.357 L 194.400 269.200 215.529 269.200 C 240.988 269.200,252.057 268.131,259.000 265.002 C 259.660 264.705,260.740 264.327,261.400 264.163 C 268.550 262.386,280.503 253.454,286.380 245.496 C 287.719 243.683,288.992 241.982,289.208 241.716 C 289.681 241.134,293.601 233.472,294.285 231.791 C 295.825 228.013,297.090 223.541,298.471 217.000 C 299.024 214.379,299.030 199.676,298.479 196.600 C 294.492 174.350,280.882 156.971,262.906 151.181 C 262.078 150.914,261.220 150.555,261.000 150.382 C 260.131 149.702,251.149 147.556,244.200 146.369 C 242.862 146.140,231.308 145.860,218.100 145.736 L 194.400 145.513 194.400 207.357 " stroke="none" fill="#a4cc34" fill-rule="evenodd"></path><path id="path2" d="M111.578 77.500 L 110.200 79.000 111.700 77.622 C 112.525 76.863,113.200 76.188,113.200 76.122 C 113.200 75.816,112.862 76.104,111.578 77.500 M138.534 88.800 C 138.534 90.450,138.605 91.125,138.691 90.300 C 138.778 89.475,138.778 88.125,138.691 87.300 C 138.605 86.475,138.534 87.150,138.534 88.800 M106.914 88.600 C 106.917 89.700,106.995 90.103,107.087 89.495 C 107.179 88.886,107.177 87.986,107.082 87.495 C 106.987 87.003,106.911 87.500,106.914 88.600 M133.775 100.100 L 132.600 101.400 133.900 100.225 C 135.112 99.130,135.384 98.800,135.075 98.800 C 135.006 98.800,134.421 99.385,133.775 100.100 M121.700 104.687 C 122.305 104.778,123.295 104.778,123.900 104.687 C 124.505 104.595,124.010 104.520,122.800 104.520 C 121.590 104.520,121.095 104.595,121.700 104.687 M134.996 207.200 C 134.996 253.070,135.043 271.835,135.100 248.900 C 135.157 225.965,135.157 188.435,135.100 165.500 C 135.043 142.565,134.996 161.330,134.996 207.200 M299.800 147.600 C 301.550 149.360,303.071 150.800,303.181 150.800 C 303.291 150.800,301.950 149.360,300.200 147.600 C 298.450 145.840,296.929 144.400,296.819 144.400 C 296.709 144.400,298.050 145.840,299.800 147.600 M204.728 145.500 C 210.518 145.562,219.878 145.562,225.528 145.500 C 231.178 145.437,226.440 145.386,215.000 145.386 C 203.560 145.386,198.938 145.437,204.728 145.500 M238.500 145.876 C 238.885 145.976,239.515 145.976,239.900 145.876 C 240.285 145.775,239.970 145.693,239.200 145.693 C 238.430 145.693,238.115 145.775,238.500 145.876 M299.353 207.000 C 299.353 209.640,299.418 210.668,299.497 209.284 C 299.575 207.901,299.574 205.741,299.495 204.484 C 299.416 203.228,299.352 204.360,299.353 207.000 M324.109 204.400 C 324.109 205.390,324.187 205.795,324.282 205.300 C 324.378 204.805,324.378 203.995,324.282 203.500 C 324.187 203.005,324.109 203.410,324.109 204.400 M324.114 210.200 C 324.117 211.300,324.195 211.703,324.287 211.095 C 324.379 210.486,324.377 209.586,324.282 209.095 C 324.187 208.603,324.111 209.100,324.114 210.200 M299.186 266.700 L 297.000 269.000 299.300 266.814 C 301.437 264.782,301.783 264.400,301.486 264.400 C 301.424 264.400,300.389 265.435,299.186 266.700 " stroke="none" fill="#c4dc76" fill-rule="evenodd"></path><path id="path3" d="M122.100 73.076 C 122.485 73.176,123.115 73.176,123.500 73.076 C 123.885 72.975,123.570 72.893,122.800 72.893 C 122.030 72.893,121.715 72.975,122.100 73.076 M133.785 78.000 C 135.091 79.430,136.238 80.690,136.334 80.800 C 136.430 80.910,136.307 80.640,136.061 80.200 C 135.497 79.191,134.529 78.128,132.783 76.600 C 132.029 75.940,132.480 76.570,133.785 78.000 M137.267 83.220 C 137.501 83.892,137.767 84.367,137.857 84.276 C 138.056 84.078,137.301 82.000,137.031 82.000 C 136.927 82.000,137.033 82.549,137.267 83.220 M107.456 84.884 C 107.321 85.388,107.228 86.250,107.249 86.800 C 107.272 87.389,107.431 87.071,107.636 86.025 C 108.003 84.152,107.873 83.327,107.456 84.884 M107.228 91.033 C 107.244 91.675,107.416 92.560,107.610 93.000 C 107.847 93.534,107.886 93.202,107.727 92.000 C 107.446 89.880,107.188 89.380,107.228 91.033 M109.000 96.400 C 109.341 97.060,109.711 97.600,109.821 97.600 C 109.931 97.600,109.741 97.060,109.400 96.400 C 109.059 95.740,108.689 95.200,108.579 95.200 C 108.469 95.200,108.659 95.740,109.000 96.400 M134.027 99.309 C 132.555 100.996,132.341 101.348,133.362 100.400 C 134.704 99.154,136.660 96.785,136.327 96.809 C 136.257 96.814,135.222 97.939,134.027 99.309 M111.600 99.800 C 112.346 100.570,113.047 101.200,113.157 101.200 C 113.267 101.200,112.746 100.570,112.000 99.800 C 111.254 99.030,110.553 98.400,110.443 98.400 C 110.333 98.400,110.854 99.030,111.600 99.800 M114.800 102.196 C 114.800 102.470,117.249 103.684,117.432 103.501 C 117.519 103.414,116.962 103.044,116.195 102.678 C 115.428 102.312,114.800 102.095,114.800 102.196 M129.200 102.800 C 128.430 103.222,127.944 103.574,128.120 103.583 C 128.544 103.605,130.800 102.432,130.800 102.190 C 130.800 101.928,130.777 101.937,129.200 102.800 M120.300 104.282 C 120.795 104.378,121.605 104.378,122.100 104.282 C 122.595 104.187,122.190 104.109,121.200 104.109 C 120.210 104.109,119.805 104.187,120.300 104.282 M123.905 104.283 C 124.402 104.379,125.122 104.375,125.505 104.275 C 125.887 104.175,125.480 104.096,124.600 104.101 C 123.720 104.105,123.407 104.187,123.905 104.283 M110.899 207.300 L 111.000 291.000 122.574 291.106 C 128.939 291.165,134.286 291.075,134.454 290.906 C 134.623 290.738,129.460 290.650,122.980 290.712 L 111.200 290.823 111.200 207.418 L 111.200 124.012 123.100 123.900 L 135.000 123.788 122.899 123.694 L 110.798 123.600 110.899 207.300 M188.100 123.900 C 197.945 123.959,214.055 123.959,223.900 123.900 C 233.745 123.840,225.690 123.792,206.000 123.792 C 186.310 123.792,178.255 123.840,188.100 123.900 M170.196 207.400 C 170.196 253.160,170.243 271.821,170.300 248.868 C 170.357 225.916,170.357 188.476,170.300 165.668 C 170.243 142.861,170.196 161.640,170.196 207.400 M248.705 124.683 C 249.202 124.779,249.922 124.775,250.305 124.675 C 250.687 124.575,250.280 124.496,249.400 124.501 C 248.520 124.505,248.207 124.587,248.705 124.683 M259.200 126.400 C 259.750 126.576,260.560 126.720,261.000 126.720 C 261.633 126.720,261.592 126.654,260.800 126.400 C 260.250 126.224,259.440 126.080,259.000 126.080 C 258.367 126.080,258.408 126.146,259.200 126.400 M270.400 129.431 C 270.400 129.701,272.478 130.456,272.676 130.257 C 272.767 130.167,272.292 129.901,271.620 129.667 C 270.949 129.433,270.400 129.327,270.400 129.431 M276.000 131.800 C 276.550 132.114,277.180 132.372,277.400 132.372 C 277.620 132.372,277.350 132.114,276.800 131.800 C 276.250 131.486,275.620 131.228,275.400 131.228 C 275.180 131.228,275.450 131.486,276.000 131.800 M282.000 134.579 C 282.000 134.689,282.540 135.059,283.200 135.400 C 283.860 135.741,284.400 135.931,284.400 135.821 C 284.400 135.711,283.860 135.341,283.200 135.000 C 282.540 134.659,282.000 134.469,282.000 134.579 M295.235 143.700 C 295.328 143.755,296.033 144.340,296.802 145.000 L 298.200 146.200 297.025 144.900 C 296.379 144.185,295.674 143.600,295.458 143.600 C 295.243 143.600,295.143 143.645,295.235 143.700 M194.198 207.200 L 194.200 269.400 217.100 269.405 L 240.000 269.410 217.201 269.302 L 194.403 269.193 194.299 207.097 L 194.196 145.000 194.198 207.200 M236.707 145.490 C 237.426 145.579,238.506 145.577,239.107 145.486 C 239.708 145.395,239.120 145.322,237.800 145.324 C 236.480 145.326,235.988 145.401,236.707 145.490 M241.305 145.887 C 241.914 145.979,242.814 145.977,243.305 145.882 C 243.797 145.787,243.300 145.711,242.200 145.714 C 241.100 145.717,240.697 145.795,241.305 145.887 M252.400 147.600 C 253.768 148.038,254.819 148.038,253.800 147.600 C 253.360 147.411,252.640 147.262,252.200 147.268 C 251.557 147.277,251.596 147.343,252.400 147.600 M258.400 149.133 C 258.730 149.336,259.450 149.624,260.000 149.771 C 260.695 149.957,260.817 149.925,260.400 149.667 C 260.070 149.464,259.350 149.176,258.800 149.029 C 258.105 148.843,257.983 148.875,258.400 149.133 M302.997 151.201 C 304.893 153.418,304.920 153.442,304.486 152.600 C 304.259 152.160,303.562 151.351,302.937 150.801 L 301.800 149.803 302.997 151.201 M262.800 150.733 C 263.130 150.936,263.850 151.224,264.400 151.371 C 265.095 151.557,265.217 151.525,264.800 151.267 C 264.470 151.064,263.750 150.776,263.200 150.629 C 262.505 150.443,262.383 150.475,262.800 150.733 M307.375 156.532 C 307.991 157.339,308.576 158.000,308.675 158.000 C 308.953 158.000,307.221 155.660,306.709 155.344 C 306.459 155.189,306.759 155.724,307.375 156.532 M283.800 164.800 C 284.883 165.900,285.860 166.800,285.970 166.800 C 286.080 166.800,285.283 165.900,284.200 164.800 C 283.117 163.700,282.140 162.800,282.030 162.800 C 281.920 162.800,282.717 163.700,283.800 164.800 M316.028 171.000 C 316.028 171.220,316.286 171.850,316.600 172.400 C 316.914 172.950,317.172 173.220,317.172 173.000 C 317.172 172.780,316.914 172.150,316.600 171.600 C 316.286 171.050,316.028 170.780,316.028 171.000 M293.228 178.200 C 293.228 178.420,293.486 179.050,293.800 179.600 C 294.114 180.150,294.372 180.420,294.372 180.200 C 294.372 179.980,294.114 179.350,293.800 178.800 C 293.486 178.250,293.228 177.980,293.228 178.200 M295.267 183.220 C 295.501 183.892,295.767 184.367,295.857 184.276 C 296.056 184.078,295.301 182.000,295.031 182.000 C 294.927 182.000,295.033 182.549,295.267 183.220 M321.268 185.800 C 321.262 186.240,321.411 186.960,321.600 187.400 C 322.038 188.419,322.038 187.368,321.600 186.000 C 321.343 185.196,321.277 185.157,321.268 185.800 M296.868 187.600 C 296.888 188.639,297.518 190.346,297.532 189.400 C 297.538 188.960,297.389 188.240,297.200 187.800 C 296.989 187.310,296.861 187.232,296.868 187.600 M323.085 195.200 C 323.207 196.630,323.372 197.875,323.453 197.967 C 323.720 198.270,323.511 195.022,323.185 193.800 C 322.982 193.044,322.946 193.562,323.085 195.200 M298.901 197.400 C 298.905 198.280,298.987 198.593,299.083 198.095 C 299.179 197.598,299.175 196.878,299.075 196.495 C 298.975 196.113,298.896 196.520,298.901 197.400 M323.701 199.800 C 323.705 200.680,323.787 200.993,323.883 200.495 C 323.979 199.998,323.975 199.278,323.875 198.895 C 323.775 198.513,323.696 198.920,323.701 199.800 M299.301 201.000 C 299.305 201.880,299.387 202.193,299.483 201.695 C 299.579 201.198,299.575 200.478,299.475 200.095 C 299.375 199.713,299.296 200.120,299.301 201.000 M324.093 207.200 C 324.093 207.970,324.175 208.285,324.276 207.900 C 324.376 207.515,324.376 206.885,324.276 206.500 C 324.175 206.115,324.093 206.430,324.093 207.200 M299.301 213.000 C 299.305 213.880,299.387 214.193,299.483 213.695 C 299.579 213.198,299.575 212.478,299.475 212.095 C 299.375 211.713,299.296 212.120,299.301 213.000 M323.701 214.600 C 323.705 215.480,323.787 215.793,323.883 215.295 C 323.979 214.798,323.975 214.078,323.875 213.695 C 323.775 213.313,323.696 213.720,323.701 214.600 M298.893 216.000 C 298.893 216.770,298.975 217.085,299.076 216.700 C 299.176 216.315,299.176 215.685,299.076 215.300 C 298.975 214.915,298.893 215.230,298.893 216.000 M323.264 217.450 C 323.229 218.138,323.111 219.308,323.001 220.050 L 322.803 221.400 323.224 220.058 C 323.455 219.320,323.573 218.150,323.486 217.458 L 323.328 216.200 323.264 217.450 M321.450 227.250 C 321.309 227.953,321.269 228.602,321.359 228.692 C 321.450 228.783,321.648 228.291,321.800 227.600 C 321.952 226.909,321.993 226.259,321.891 226.158 C 321.789 226.056,321.591 226.547,321.450 227.250 M295.267 229.980 C 295.033 230.651,294.927 231.200,295.031 231.200 C 295.301 231.200,296.056 229.122,295.857 228.924 C 295.767 228.833,295.501 229.308,295.267 229.980 M293.665 233.817 C 292.995 235.288,293.123 235.602,293.847 234.265 C 294.186 233.640,294.388 233.054,294.296 232.963 C 294.205 232.871,293.921 233.256,293.665 233.817 M291.800 237.600 C 291.459 238.260,291.269 238.800,291.379 238.800 C 291.489 238.800,291.859 238.260,292.200 237.600 C 292.541 236.940,292.731 236.400,292.621 236.400 C 292.511 236.400,292.141 236.940,291.800 237.600 M286.399 246.100 C 285.810 246.904,285.713 247.184,286.145 246.833 C 286.801 246.300,287.793 244.800,287.489 244.800 C 287.413 244.800,286.922 245.385,286.399 246.100 M283.781 249.300 L 282.200 251.000 283.900 249.419 C 285.481 247.948,285.784 247.600,285.481 247.600 C 285.416 247.600,284.651 248.365,283.781 249.300 M311.753 250.500 C 310.376 252.836,310.286 253.035,310.987 252.200 C 311.800 251.232,312.500 250.000,312.238 250.000 C 312.133 250.000,311.915 250.225,311.753 250.500 M279.600 253.400 C 278.628 254.390,277.923 255.200,278.033 255.200 C 278.143 255.200,279.028 254.390,280.000 253.400 C 280.972 252.410,281.677 251.600,281.567 251.600 C 281.457 251.600,280.572 252.410,279.600 253.400 M305.355 259.481 C 304.507 260.516,304.022 261.234,304.277 261.076 C 304.821 260.740,307.355 257.600,307.082 257.600 C 306.980 257.600,306.203 258.447,305.355 259.481 M302.000 263.400 C 301.028 264.390,300.323 265.200,300.433 265.200 C 300.543 265.200,301.428 264.390,302.400 263.400 C 303.372 262.410,304.077 261.600,303.967 261.600 C 303.857 261.600,302.972 262.410,302.000 263.400 M297.600 267.800 C 296.628 268.790,295.923 269.600,296.033 269.600 C 296.143 269.600,297.028 268.790,298.000 267.800 C 298.972 266.810,299.677 266.000,299.567 266.000 C 299.457 266.000,298.572 266.810,297.600 267.800 M250.600 267.600 C 249.493 267.882,249.477 267.909,250.400 267.947 C 250.950 267.969,251.670 267.813,252.000 267.600 C 252.681 267.160,252.329 267.160,250.600 267.600 M291.200 273.249 C 289.806 274.471,289.805 274.472,291.088 273.619 C 291.796 273.148,292.482 272.591,292.612 272.381 C 292.997 271.757,292.677 271.954,291.200 273.249 M287.487 275.768 C 285.126 277.402,284.564 277.975,286.306 276.972 C 287.650 276.199,289.956 274.423,289.600 274.436 C 289.490 274.441,288.539 275.040,287.487 275.768 M280.700 279.829 C 279.205 280.640,279.296 280.978,280.800 280.200 C 281.460 279.859,282.000 279.494,282.000 279.390 C 282.000 279.132,281.957 279.147,280.700 279.829 M262.600 287.200 C 262.096 287.417,262.022 287.544,262.400 287.544 C 262.730 287.544,263.360 287.389,263.800 287.200 C 264.304 286.983,264.378 286.856,264.000 286.856 C 263.670 286.856,263.040 287.011,262.600 287.200 M255.800 288.800 C 254.722 289.074,254.702 289.106,255.600 289.113 C 256.150 289.117,257.050 288.976,257.600 288.800 C 258.944 288.369,257.492 288.369,255.800 288.800 M205.800 290.800 L 170.200 291.006 205.400 291.051 C 224.760 291.075,241.950 290.968,243.600 290.812 L 246.600 290.529 244.000 290.561 C 242.570 290.579,225.380 290.686,205.800 290.800 " stroke="none" fill="#e0f0b9" fill-rule="evenodd"></path><path id="path4" d="M110.585 123.700 C 110.480 123.975,110.441 161.820,110.498 207.800 L 110.602 291.400 110.701 207.489 L 110.800 123.577 122.962 123.689 C 129.651 123.750,135.041 123.665,134.938 123.500 C 134.594 122.943,110.798 123.139,110.585 123.700 M169.785 123.700 C 169.680 123.975,169.641 161.730,169.698 207.600 L 169.802 291.000 169.901 207.302 L 170.000 123.604 206.300 123.500 L 242.600 123.396 206.287 123.298 C 177.533 123.220,169.935 123.304,169.785 123.700 M244.505 123.887 C 245.114 123.979,246.014 123.977,246.505 123.882 C 246.997 123.787,246.500 123.711,245.400 123.714 C 244.300 123.717,243.897 123.795,244.505 123.887 M236.100 145.876 C 236.485 145.976,237.115 145.976,237.500 145.876 C 237.885 145.775,237.570 145.693,236.800 145.693 C 236.030 145.693,235.715 145.775,236.100 145.876 M280.000 161.325 C 280.000 161.394,280.585 161.979,281.300 162.625 L 282.600 163.800 281.425 162.500 C 280.330 161.288,280.000 161.016,280.000 161.325 M324.544 207.200 C 324.544 209.290,324.612 210.145,324.694 209.100 C 324.776 208.055,324.776 206.345,324.694 205.300 C 324.612 204.255,324.544 205.110,324.544 207.200 M241.905 268.683 C 242.402 268.779,243.122 268.775,243.505 268.675 C 243.887 268.575,243.480 268.496,242.600 268.501 C 241.720 268.505,241.407 268.587,241.905 268.683 " stroke="none" fill="#bcdc63" fill-rule="evenodd"></path></g></svg>