<svg id="svg" version="1.1" xmlns="http://www.w3.org/2000/svg" xmlns:xlink="http://www.w3.org/1999/xlink" width="400" height="400" viewBox="0, 0, 400,400"><g id="svgg"><path id="path0" d="M169.600 86.280 C 167.794 86.589,157.819 90.642,150.600 93.999 C 150.160 94.204,146.020 96.007,141.400 98.007 C 136.780 100.006,132.050 102.082,130.889 102.621 C 129.728 103.159,128.698 103.600,128.601 103.600 C 127.835 103.600,123.936 105.773,123.610 106.381 C 121.829 109.709,123.562 112.623,129.000 115.444 C 130.980 116.472,133.050 117.608,133.600 117.971 C 134.150 118.333,135.134 118.892,135.787 119.214 C 139.653 121.122,142.847 125.684,143.799 130.658 C 144.549 134.579,144.710 273.526,143.980 287.600 C 143.199 302.669,142.422 303.600,130.627 303.600 C 122.259 303.600,122.800 303.177,122.800 309.725 C 122.800 315.838,121.918 315.407,133.517 314.970 C 138.733 314.773,151.730 314.612,162.400 314.612 C 173.070 314.612,186.067 314.773,191.283 314.970 C 202.933 315.409,202.000 315.897,202.000 309.365 C 202.000 303.210,202.601 303.601,193.126 303.598 C 181.615 303.594,180.772 303.012,179.239 294.000 C 178.878 291.879,178.008 245.557,178.001 228.100 C 178.000 224.144,178.287 223.727,180.305 224.753 C 183.572 226.415,189.961 228.025,197.877 229.180 C 201.474 229.705,212.888 229.729,215.469 229.217 C 216.531 229.007,218.930 228.533,220.800 228.164 C 248.457 222.714,270.899 197.624,276.045 166.400 C 282.843 125.145,265.947 94.450,232.200 86.748 C 228.918 85.999,215.852 86.003,212.600 86.754 C 197.882 90.155,189.154 94.704,180.490 103.490 C 177.186 106.842,177.358 107.005,176.397 99.600 C 174.621 85.907,174.393 85.459,169.600 86.280 M213.000 105.400 C 228.138 109.320,238.848 125.111,242.634 149.089 C 247.704 181.209,240.596 205.873,223.780 214.511 C 215.664 218.680,200.873 217.823,191.053 212.614 C 184.550 209.164,180.794 205.203,179.279 200.200 C 178.088 196.266,178.019 193.912,178.010 156.972 L 178.000 118.944 179.500 117.172 C 182.791 113.285,186.396 110.455,190.600 108.459 C 192.140 107.729,193.713 106.966,194.095 106.765 C 194.477 106.564,195.141 106.400,195.571 106.400 C 196.001 106.400,196.449 106.244,196.567 106.054 C 196.779 105.711,198.155 105.416,202.400 104.803 C 205.107 104.412,210.318 104.706,213.000 105.400 " stroke="none" fill="#fafbfb" fill-rule="evenodd"></path><path id="path1" d="M0.000 200.000 L 0.000 400.000 200.000 400.000 L 400.000 400.000 400.000 200.000 L 400.000 0.000 200.000 0.000 L 0.000 0.000 0.000 200.000 M173.880 86.100 C 175.091 87.429,175.600 88.592,175.600 90.027 C 175.600 90.731,175.766 91.958,175.970 92.754 C 176.173 93.549,176.650 96.630,177.030 99.600 C 177.410 102.570,177.765 105.056,177.818 105.124 C 177.871 105.192,179.060 104.112,180.460 102.724 C 186.181 97.054,188.780 95.231,196.400 91.548 C 202.251 88.719,205.270 87.600,207.048 87.600 C 207.545 87.600,208.064 87.420,208.200 87.200 C 208.336 86.980,209.031 86.800,209.744 86.800 C 210.457 86.800,211.211 86.636,211.420 86.435 C 212.306 85.585,224.880 84.956,228.595 85.576 C 233.057 86.321,235.738 86.860,236.600 87.186 C 237.040 87.352,238.480 87.823,239.800 88.232 C 252.750 92.247,268.404 107.419,273.402 120.800 C 274.318 123.252,274.622 124.031,275.116 125.200 C 275.349 125.750,275.650 126.740,275.784 127.400 C 275.919 128.060,276.304 129.860,276.639 131.400 C 279.145 142.905,278.331 162.292,274.830 174.500 C 274.594 175.325,274.238 176.585,274.040 177.300 C 273.604 178.871,272.137 183.092,271.642 184.200 C 268.069 192.189,266.682 194.805,263.547 199.468 C 259.586 205.360,253.215 212.218,248.191 215.999 C 246.876 216.988,245.710 217.889,245.600 218.000 C 243.667 219.954,232.341 225.574,227.000 227.230 C 222.219 228.713,217.865 229.511,211.742 230.029 C 205.462 230.559,196.432 229.897,190.200 228.449 C 185.756 227.416,180.413 225.724,179.820 225.161 C 178.309 223.726,178.261 224.270,178.584 239.300 C 178.755 247.275,179.044 262.440,179.225 273.000 C 179.631 296.581,179.968 299.326,182.743 301.614 L 184.182 302.800 192.111 302.800 C 198.436 302.800,200.278 302.923,201.220 303.410 L 202.400 304.021 202.400 309.401 C 202.400 316.779,203.511 316.258,189.074 315.657 C 174.629 315.057,150.159 315.057,135.700 315.659 C 121.157 316.264,122.400 316.827,122.400 309.631 C 122.400 302.355,121.807 302.800,131.489 302.800 L 138.800 302.800 140.343 301.257 C 143.628 297.972,143.400 304.624,143.400 212.200 C 143.400 124.905,143.415 125.600,141.537 125.600 C 141.352 125.600,141.200 125.367,141.200 125.083 C 141.200 123.480,135.417 119.344,127.488 115.278 C 121.486 112.200,120.683 106.439,125.934 104.129 C 127.180 103.581,128.830 102.856,129.600 102.518 C 130.370 102.181,131.918 101.476,133.040 100.952 C 134.162 100.429,135.202 100.000,135.351 100.000 C 135.501 100.000,136.923 99.389,138.511 98.642 C 141.166 97.395,144.210 96.044,146.200 95.229 C 146.640 95.049,147.900 94.496,149.000 94.000 C 150.100 93.504,151.360 92.956,151.800 92.782 C 152.995 92.310,157.299 90.384,158.095 89.965 C 158.477 89.764,159.062 89.600,159.395 89.600 C 159.728 89.600,160.000 89.420,160.000 89.200 C 160.000 88.980,160.225 88.801,160.500 88.801 C 160.775 88.802,162.170 88.331,163.600 87.754 C 170.827 84.842,172.490 84.574,173.880 86.100 M200.800 105.588 C 200.470 105.808,199.749 105.991,199.198 105.994 C 196.659 106.009,189.449 109.236,185.850 111.967 C 182.242 114.705,181.710 115.200,179.978 117.437 L 178.400 119.474 178.400 156.613 C 178.400 192.321,178.511 196.341,179.578 199.400 C 181.015 203.520,183.620 207.258,186.060 208.699 C 186.687 209.069,187.200 209.514,187.200 209.686 C 187.200 209.859,187.411 210.000,187.669 210.000 C 187.926 210.000,188.421 210.245,188.769 210.544 C 190.639 212.155,195.474 214.276,200.000 215.470 C 205.482 216.916,220.810 216.402,221.839 214.737 C 221.954 214.551,222.301 214.400,222.611 214.400 C 225.177 214.400,233.654 206.565,236.237 201.806 C 236.478 201.363,237.034 200.370,237.474 199.600 C 238.219 198.294,240.519 191.837,241.535 188.200 C 242.880 183.385,243.333 178.459,243.336 168.600 C 243.338 159.454,243.100 155.968,241.981 148.800 C 241.127 143.330,238.819 134.687,237.227 131.000 C 235.837 127.782,235.414 126.834,234.815 125.600 C 230.339 116.383,220.481 106.800,215.474 106.800 C 215.129 106.800,214.748 106.639,214.626 106.442 C 214.099 105.589,201.926 104.837,200.800 105.588 " stroke="none" fill="#316196" fill-rule="evenodd"></path><path id="path2" d="M169.646 85.563 C 169.306 85.778,169.816 85.832,170.963 85.703 C 172.541 85.525,173.003 85.641,173.917 86.446 L 175.000 87.400 174.030 86.300 C 173.027 85.162,170.856 84.797,169.646 85.563 M218.200 85.436 C 219.921 85.709,229.341 85.823,228.400 85.560 C 227.850 85.406,225.150 85.286,222.400 85.294 C 219.650 85.302,217.760 85.366,218.200 85.436 M211.404 86.394 C 211.252 86.640,211.655 86.694,212.480 86.537 C 214.249 86.200,214.401 86.000,212.890 86.000 C 212.207 86.000,211.538 86.177,211.404 86.394 M230.833 86.147 C 230.925 86.228,231.720 86.404,232.600 86.538 C 233.715 86.707,233.958 86.671,233.400 86.419 C 232.632 86.071,230.490 85.844,230.833 86.147 M175.044 88.600 C 175.373 90.071,175.602 90.390,175.594 89.367 C 175.591 88.945,175.405 88.330,175.182 88.000 C 174.885 87.562,174.848 87.724,175.044 88.600 M176.101 94.600 C 176.105 95.480,176.187 95.793,176.283 95.295 C 176.379 94.798,176.375 94.078,176.275 93.695 C 176.175 93.313,176.096 93.720,176.101 94.600 M187.638 96.418 C 184.939 98.393,185.289 98.502,188.110 96.564 C 190.534 94.898,190.657 94.794,190.167 94.818 C 189.965 94.828,188.827 95.548,187.638 96.418 M144.100 96.012 C 142.761 96.551,143.011 96.824,144.400 96.340 C 145.060 96.110,145.600 95.849,145.600 95.761 C 145.600 95.524,145.113 95.605,144.100 96.012 M256.000 97.725 C 256.000 97.794,256.585 98.379,257.300 99.025 L 258.600 100.200 257.425 98.900 C 256.330 97.688,256.000 97.416,256.000 97.725 M176.893 100.800 C 176.893 101.570,176.975 101.885,177.076 101.500 C 177.176 101.115,177.176 100.485,177.076 100.100 C 176.975 99.715,176.893 100.030,176.893 100.800 M180.585 102.500 L 178.600 104.600 180.700 102.615 C 182.651 100.771,182.983 100.400,182.685 100.400 C 182.622 100.400,181.677 101.345,180.585 102.500 M260.800 102.252 C 260.800 102.464,261.565 103.349,262.500 104.219 L 264.200 105.800 262.600 104.006 C 261.720 103.020,260.955 102.135,260.900 102.039 C 260.845 101.944,260.800 102.040,260.800 102.252 M205.300 105.076 C 205.685 105.176,206.315 105.176,206.700 105.076 C 207.085 104.975,206.770 104.893,206.000 104.893 C 205.230 104.893,204.915 104.975,205.300 105.076 M199.600 105.600 C 198.776 105.864,198.741 105.926,199.400 105.954 C 199.840 105.973,200.470 105.813,200.800 105.600 C 201.501 105.147,201.014 105.147,199.600 105.600 M211.200 105.582 C 211.530 105.805,212.145 105.991,212.567 105.994 C 213.590 106.002,213.271 105.773,211.800 105.444 C 210.924 105.248,210.762 105.285,211.200 105.582 M122.931 109.000 C 122.933 110.540,123.005 111.121,123.092 110.291 C 123.179 109.461,123.177 108.201,123.089 107.491 C 123.000 106.781,122.929 107.460,122.931 109.000 M224.327 111.800 C 224.981 112.350,225.638 112.800,225.788 112.800 C 225.939 112.800,225.527 112.350,224.873 111.800 C 224.219 111.250,223.562 110.800,223.412 110.800 C 223.261 110.800,223.673 111.250,224.327 111.800 M139.400 122.800 C 140.259 123.680,141.052 124.400,141.162 124.400 C 141.272 124.400,140.659 123.680,139.800 122.800 C 138.941 121.920,138.148 121.200,138.038 121.200 C 137.928 121.200,138.541 121.920,139.400 122.800 M143.400 211.600 C 143.400 256.590,143.511 290.610,143.647 287.200 C 143.982 278.799,143.998 134.318,143.665 131.800 C 143.519 130.700,143.400 166.610,143.400 211.600 M277.909 146.896 C 278.084 153.368,278.275 154.174,278.312 148.600 C 278.329 145.960,278.219 143.483,278.065 143.096 C 277.912 142.710,277.842 144.420,277.909 146.896 M243.342 160.200 C 243.341 162.180,243.408 163.040,243.492 162.112 C 243.576 161.184,243.577 159.564,243.495 158.512 C 243.412 157.460,243.343 158.220,243.342 160.200 M276.893 163.200 C 276.893 163.970,276.975 164.285,277.076 163.900 C 277.176 163.515,277.176 162.885,277.076 162.500 C 276.975 162.115,276.893 162.430,276.893 163.200 M243.753 168.600 C 243.753 171.240,243.818 172.268,243.897 170.884 C 243.975 169.501,243.974 167.341,243.895 166.084 C 243.816 164.828,243.752 165.960,243.753 168.600 M276.093 168.000 C 276.093 168.770,276.175 169.085,276.276 168.700 C 276.376 168.315,276.376 167.685,276.276 167.300 C 276.175 166.915,276.093 167.230,276.093 168.000 M243.337 176.600 C 243.339 178.360,243.409 179.030,243.493 178.089 C 243.578 177.149,243.577 175.709,243.491 174.889 C 243.405 174.070,243.336 174.840,243.337 176.600 M271.667 183.180 C 271.433 183.851,271.327 184.400,271.431 184.400 C 271.701 184.400,272.456 182.322,272.257 182.124 C 272.167 182.033,271.901 182.508,271.667 183.180 M265.353 196.100 C 263.976 198.436,263.886 198.635,264.587 197.800 C 265.400 196.832,266.100 195.600,265.838 195.600 C 265.733 195.600,265.515 195.825,265.353 196.100 M260.800 202.800 C 260.103 203.680,259.623 204.400,259.733 204.400 C 259.843 204.400,260.503 203.680,261.200 202.800 C 261.897 201.920,262.377 201.200,262.267 201.200 C 262.157 201.200,261.497 201.920,260.800 202.800 M232.434 206.953 L 231.469 208.200 232.613 207.112 C 233.243 206.514,233.677 205.953,233.579 205.865 C 233.480 205.777,232.965 206.267,232.434 206.953 M254.140 210.408 C 252.787 211.723,251.802 212.800,251.952 212.800 C 252.102 212.800,253.294 211.720,254.600 210.400 C 257.674 207.294,257.336 207.300,254.140 210.408 M228.975 210.500 L 227.800 211.800 229.100 210.625 C 229.815 209.979,230.400 209.394,230.400 209.325 C 230.400 209.016,230.070 209.288,228.975 210.500 M188.509 210.800 C 189.069 211.240,189.657 211.600,189.817 211.600 C 189.977 211.600,189.650 211.240,189.091 210.800 C 188.531 210.360,187.943 210.000,187.783 210.000 C 187.623 210.000,187.950 210.360,188.509 210.800 M226.100 212.446 C 224.737 213.319,224.295 213.906,225.500 213.243 C 226.418 212.739,227.856 211.627,227.600 211.619 C 227.490 211.616,226.815 211.988,226.100 212.446 M249.970 214.300 L 249.000 215.400 250.200 214.400 C 250.860 213.850,251.475 213.355,251.567 213.300 C 251.658 213.245,251.555 213.200,251.336 213.200 C 251.118 213.200,250.503 213.695,249.970 214.300 M199.600 215.582 C 199.930 215.805,200.545 215.991,200.967 215.994 C 201.990 216.002,201.671 215.773,200.200 215.444 C 199.324 215.248,199.162 215.285,199.600 215.582 M207.718 216.698 C 209.433 216.773,212.133 216.772,213.718 216.697 C 215.303 216.621,213.900 216.559,210.600 216.560 C 207.300 216.561,206.003 216.622,207.718 216.698 M191.800 228.800 C 192.240 228.989,192.960 229.138,193.400 229.132 C 194.043 229.123,194.004 229.057,193.200 228.800 C 191.832 228.362,190.781 228.362,191.800 228.800 M219.600 228.800 C 218.776 229.064,218.741 229.126,219.400 229.154 C 219.840 229.173,220.470 229.013,220.800 228.800 C 221.501 228.347,221.014 228.347,219.600 228.800 M196.600 229.610 C 197.370 229.931,201.107 230.151,200.767 229.855 C 200.675 229.776,199.520 229.613,198.200 229.493 C 196.751 229.362,196.117 229.408,196.600 229.610 M214.400 229.600 L 212.600 229.880 214.200 229.912 C 215.080 229.929,216.160 229.789,216.600 229.600 C 217.527 229.202,216.961 229.202,214.400 229.600 M205.100 230.293 C 206.035 230.377,207.565 230.377,208.500 230.293 C 209.435 230.209,208.670 230.140,206.800 230.140 C 204.930 230.140,204.165 230.209,205.100 230.293 M178.529 249.800 C 178.519 253.760,178.632 261.410,178.780 266.800 L 179.050 276.600 179.072 269.000 C 179.084 264.820,178.971 257.170,178.821 252.000 L 178.548 242.600 178.529 249.800 M179.477 293.000 C 179.600 294.320,179.768 295.475,179.850 295.567 C 180.118 295.864,179.915 293.034,179.580 291.800 C 179.365 291.011,179.330 291.422,179.477 293.000 M142.446 297.267 C 142.421 297.634,142.296 298.264,142.170 298.667 C 141.952 299.362,141.963 299.363,142.397 298.687 C 142.648 298.296,142.773 297.666,142.673 297.287 C 142.511 296.668,142.488 296.666,142.446 297.267 M181.798 301.137 C 182.234 301.652,182.953 302.259,183.396 302.486 C 184.245 302.921,184.121 302.787,182.203 301.194 C 181.048 300.235,181.034 300.233,181.798 301.137 M139.800 301.850 C 139.081 302.462,138.934 302.705,139.433 302.457 C 140.166 302.093,141.541 300.776,141.149 300.814 C 141.067 300.822,140.460 301.288,139.800 301.850 M123.325 303.500 C 122.906 303.885,122.823 304.020,123.141 303.800 C 123.459 303.580,126.798 303.302,130.560 303.181 L 137.400 302.963 130.744 302.881 C 124.892 302.810,123.997 302.884,123.325 303.500 M187.000 303.068 C 191.712 303.349,201.089 303.376,200.664 303.106 C 200.409 302.944,196.780 302.843,192.600 302.880 C 188.420 302.917,185.900 303.002,187.000 303.068 M156.300 315.099 C 159.435 315.167,164.565 315.167,167.700 315.099 C 170.835 315.032,168.270 314.976,162.000 314.976 C 155.730 314.976,153.165 315.032,156.300 315.099 M130.400 315.595 C 129.190 315.740,131.260 315.776,135.000 315.674 C 138.740 315.572,141.875 315.424,141.967 315.345 C 142.242 315.106,132.768 315.310,130.400 315.595 M185.116 315.497 C 186.499 315.575,188.659 315.574,189.916 315.495 C 191.172 315.416,190.040 315.352,187.400 315.353 C 184.760 315.353,183.732 315.418,185.116 315.497 M193.305 315.887 C 193.914 315.979,194.814 315.977,195.305 315.882 C 195.797 315.787,195.300 315.711,194.200 315.714 C 193.100 315.717,192.697 315.795,193.305 315.887 " stroke="none" fill="#7991b0" fill-rule="evenodd"></path><path id="path3" d="M169.400 86.020 C 168.855 86.268,169.206 86.309,170.501 86.147 C 171.901 85.972,172.691 86.085,173.501 86.578 L 174.600 87.247 173.656 86.424 C 172.666 85.561,170.799 85.384,169.400 86.020 M216.200 85.957 C 215.320 86.091,218.200 86.200,222.600 86.200 C 227.000 86.200,229.700 86.081,228.600 85.935 C 226.152 85.611,218.387 85.624,216.200 85.957 M211.000 86.800 C 209.911 87.077,209.893 87.107,210.800 87.125 C 211.350 87.135,212.160 86.989,212.600 86.800 C 213.586 86.376,212.666 86.376,211.000 86.800 M232.200 86.781 C 232.968 87.129,235.110 87.356,234.767 87.053 C 234.675 86.972,233.880 86.796,233.000 86.662 C 231.885 86.493,231.642 86.529,232.200 86.781 M206.200 88.000 C 205.696 88.217,205.622 88.344,206.000 88.344 C 206.330 88.344,206.960 88.189,207.400 88.000 C 207.904 87.783,207.978 87.656,207.600 87.656 C 207.270 87.656,206.640 87.811,206.200 88.000 M236.433 87.744 C 236.525 87.823,237.140 88.008,237.800 88.156 C 238.676 88.352,238.838 88.315,238.400 88.018 C 237.860 87.653,236.032 87.398,236.433 87.744 M245.200 90.984 C 245.200 91.094,245.920 91.551,246.800 92.000 C 247.680 92.449,248.400 92.726,248.400 92.616 C 248.400 92.506,247.680 92.049,246.800 91.600 C 245.920 91.151,245.200 90.874,245.200 90.984 M251.400 94.671 C 251.620 94.874,252.700 95.721,253.800 96.553 L 255.800 98.066 254.200 96.598 C 253.320 95.791,252.240 94.944,251.800 94.716 C 251.360 94.488,251.180 94.468,251.400 94.671 M184.989 99.031 L 183.000 100.861 185.100 99.168 C 186.984 97.649,187.438 97.200,187.089 97.200 C 187.028 97.200,186.083 98.024,184.989 99.031 M257.200 99.400 C 257.946 100.170,258.647 100.800,258.757 100.800 C 258.867 100.800,258.346 100.170,257.600 99.400 C 256.854 98.630,256.153 98.000,256.043 98.000 C 255.933 98.000,256.454 98.630,257.200 99.400 M138.100 99.034 C 137.385 99.346,136.800 99.694,136.800 99.807 C 136.800 100.015,139.606 98.927,139.946 98.587 C 140.286 98.247,139.420 98.457,138.100 99.034 M176.840 103.074 C 176.782 104.335,177.495 106.001,178.090 105.994 C 178.485 105.989,178.490 105.918,178.111 105.677 C 177.842 105.506,177.455 104.654,177.251 103.783 C 177.042 102.892,176.863 102.582,176.840 103.074 M260.800 102.925 C 260.800 102.994,261.385 103.579,262.100 104.225 L 263.400 105.400 262.225 104.100 C 261.130 102.888,260.800 102.616,260.800 102.925 M205.100 104.682 C 205.595 104.778,206.405 104.778,206.900 104.682 C 207.395 104.587,206.990 104.509,206.000 104.509 C 205.010 104.509,204.605 104.587,205.100 104.682 M201.305 105.087 C 201.914 105.179,202.814 105.177,203.305 105.082 C 203.797 104.987,203.300 104.911,202.200 104.914 C 201.100 104.917,200.697 104.995,201.305 105.087 M208.905 105.087 C 209.514 105.179,210.414 105.177,210.905 105.082 C 211.397 104.987,210.900 104.911,209.800 104.914 C 208.700 104.917,208.297 104.995,208.905 105.087 M218.400 107.379 C 218.400 107.489,218.940 107.859,219.600 108.200 C 220.260 108.541,220.800 108.731,220.800 108.621 C 220.800 108.511,220.260 108.141,219.600 107.800 C 218.940 107.459,218.400 107.269,218.400 107.379 M266.000 109.200 C 266.470 109.860,266.944 110.400,267.054 110.400 C 267.164 110.400,266.870 109.860,266.400 109.200 C 265.930 108.540,265.456 108.000,265.346 108.000 C 265.236 108.000,265.530 108.540,266.000 109.200 M221.991 109.483 C 222.535 109.877,223.615 110.732,224.391 111.382 L 225.800 112.564 224.718 111.379 C 224.123 110.727,223.043 109.872,222.318 109.479 C 221.049 108.792,221.037 108.792,221.991 109.483 M187.600 110.036 C 186.936 110.579,186.869 110.715,187.400 110.440 C 188.705 109.766,189.428 109.212,189.000 109.215 C 188.780 109.217,188.150 109.586,187.600 110.036 M185.200 111.661 C 184.650 112.119,183.768 112.836,183.239 113.253 C 182.710 113.670,182.350 114.082,182.439 114.167 C 182.528 114.253,183.500 113.535,184.600 112.570 C 186.605 110.812,187.079 110.094,185.200 111.661 M123.200 111.464 C 123.200 111.682,123.695 112.297,124.300 112.830 L 125.400 113.800 124.400 112.600 C 123.850 111.940,123.355 111.325,123.300 111.233 C 123.245 111.142,123.200 111.245,123.200 111.464 M130.000 116.184 C 130.000 116.294,130.720 116.751,131.600 117.200 C 132.480 117.649,133.200 117.926,133.200 117.816 C 133.200 117.706,132.480 117.249,131.600 116.800 C 130.720 116.351,130.000 116.074,130.000 116.184 M178.184 118.900 C 178.079 119.175,178.040 136.590,178.097 157.600 L 178.200 195.800 178.400 157.100 C 178.510 135.815,178.549 118.400,178.487 118.400 C 178.426 118.400,178.289 118.625,178.184 118.900 M139.400 122.400 C 140.259 123.280,141.052 124.000,141.162 124.000 C 141.272 124.000,140.659 123.280,139.800 122.400 C 138.941 121.520,138.148 120.800,138.038 120.800 C 137.928 120.800,138.541 121.520,139.400 122.400 M275.206 127.833 C 275.209 128.255,275.395 128.870,275.618 129.200 C 275.915 129.638,275.952 129.476,275.756 128.600 C 275.427 127.129,275.198 126.810,275.206 127.833 M143.800 210.424 C 143.800 254.301,143.913 288.310,144.051 286.000 C 144.380 280.496,144.382 133.354,144.053 131.824 C 143.914 131.178,143.800 166.548,143.800 210.424 M276.068 131.600 C 276.088 132.639,276.718 134.346,276.732 133.400 C 276.738 132.960,276.589 132.240,276.400 131.800 C 276.189 131.310,276.061 131.232,276.068 131.600 M277.077 138.200 C 277.200 139.520,277.368 140.675,277.450 140.767 C 277.718 141.064,277.515 138.234,277.180 137.000 C 276.965 136.211,276.930 136.622,277.077 138.200 M240.244 139.400 C 240.573 140.871,240.802 141.190,240.794 140.167 C 240.791 139.745,240.605 139.130,240.382 138.800 C 240.085 138.362,240.048 138.524,240.244 139.400 M241.268 143.400 C 241.262 143.840,241.411 144.560,241.600 145.000 C 242.038 146.019,242.038 144.968,241.600 143.600 C 241.343 142.796,241.277 142.757,241.268 143.400 M242.870 152.600 C 242.857 153.040,242.995 154.120,243.177 155.000 C 243.455 156.345,243.508 156.409,243.507 155.400 C 243.505 153.999,242.908 151.370,242.870 152.600 M277.046 158.646 C 276.900 159.893,276.859 160.993,276.957 161.090 C 277.054 161.188,277.261 160.254,277.415 159.015 C 277.570 157.777,277.610 156.677,277.505 156.571 C 277.399 156.466,277.193 157.399,277.046 158.646 M243.800 168.200 C 243.800 172.820,243.922 175.790,244.070 174.800 C 244.411 172.535,244.405 164.908,244.060 162.000 C 243.917 160.790,243.800 163.580,243.800 168.200 M276.256 164.484 C 276.121 164.988,276.027 165.760,276.046 166.200 C 276.065 166.640,276.245 166.298,276.446 165.440 C 276.836 163.778,276.670 162.940,276.256 164.484 M274.649 172.615 C 274.512 172.973,274.415 173.566,274.434 173.933 C 274.453 174.300,274.627 174.069,274.821 173.420 C 275.198 172.158,275.065 171.533,274.649 172.615 M243.040 181.240 C 242.893 182.157,242.852 182.985,242.947 183.080 C 243.042 183.176,243.246 182.510,243.400 181.600 C 243.554 180.690,243.596 179.862,243.493 179.760 C 243.390 179.657,243.187 180.323,243.040 181.240 M265.053 196.100 L 264.333 197.400 265.158 196.400 C 265.889 195.513,266.214 194.800,265.886 194.800 C 265.824 194.800,265.449 195.385,265.053 196.100 M181.514 205.000 C 181.747 205.440,182.710 206.520,183.655 207.400 C 185.352 208.980,184.809 208.297,181.273 204.400 C 181.173 204.290,181.282 204.560,181.514 205.000 M253.986 210.300 L 251.800 212.600 254.100 210.414 C 256.237 208.382,256.583 208.000,256.286 208.000 C 256.224 208.000,255.189 209.035,253.986 210.300 M187.167 210.145 C 187.700 210.801,189.200 211.793,189.200 211.489 C 189.200 211.413,188.615 210.922,187.900 210.399 C 187.096 209.810,186.816 209.713,187.167 210.145 M249.400 214.276 C 248.300 215.287,247.940 215.747,248.600 215.297 C 249.724 214.530,251.944 212.378,251.570 212.418 C 251.476 212.428,250.500 213.264,249.400 214.276 M198.200 215.600 C 198.640 215.789,199.270 215.944,199.600 215.944 C 199.978 215.944,199.904 215.817,199.400 215.600 C 198.960 215.411,198.330 215.256,198.000 215.256 C 197.622 215.256,197.696 215.383,198.200 215.600 M201.800 216.381 C 202.568 216.729,204.710 216.956,204.367 216.653 C 204.275 216.572,203.480 216.396,202.600 216.262 C 201.485 216.093,201.242 216.129,201.800 216.381 M245.185 217.629 L 243.800 218.858 245.400 217.745 C 246.280 217.133,247.075 216.580,247.167 216.516 C 247.258 216.452,247.162 216.400,246.952 216.400 C 246.742 216.400,245.947 216.953,245.185 217.629 M209.300 217.094 C 210.345 217.176,212.055 217.176,213.100 217.094 C 214.145 217.012,213.290 216.944,211.200 216.944 C 209.110 216.944,208.255 217.012,209.300 217.094 M178.173 234.000 C 178.173 239.390,178.230 241.595,178.299 238.900 C 178.368 236.205,178.368 231.795,178.299 229.100 C 178.230 226.405,178.173 228.610,178.173 234.000 M189.400 227.981 C 190.168 228.329,192.310 228.556,191.967 228.253 C 191.875 228.172,191.080 227.996,190.200 227.862 C 189.085 227.693,188.842 227.729,189.400 227.981 M196.200 229.223 C 197.080 229.405,198.250 229.544,198.800 229.531 C 199.441 229.516,199.226 229.389,198.200 229.177 C 197.320 228.995,196.150 228.856,195.600 228.869 C 194.959 228.884,195.174 229.011,196.200 229.223 M215.200 229.220 C 214.526 229.449,214.851 229.484,216.200 229.328 C 217.300 229.201,218.275 229.031,218.367 228.949 C 218.682 228.668,216.199 228.880,215.200 229.220 M204.700 229.895 C 205.855 229.976,207.745 229.976,208.900 229.895 C 210.055 229.814,209.110 229.748,206.800 229.748 C 204.490 229.748,203.545 229.814,204.700 229.895 M178.570 268.000 C 178.570 272.730,178.628 274.665,178.698 272.300 C 178.769 269.935,178.769 266.065,178.698 263.700 C 178.628 261.335,178.570 263.270,178.570 268.000 M178.840 289.833 C 178.862 291.355,179.015 293.050,179.180 293.600 C 179.346 294.150,179.394 292.980,179.288 291.000 C 179.056 286.678,178.784 285.971,178.840 289.833 M143.254 295.467 C 143.225 295.944,143.096 296.664,142.970 297.067 C 142.752 297.761,142.764 297.762,143.196 297.088 C 143.447 296.697,143.575 295.977,143.481 295.488 C 143.309 294.601,143.309 294.601,143.254 295.467 M140.575 301.700 L 139.400 303.000 140.700 301.825 C 141.912 300.730,142.184 300.400,141.875 300.400 C 141.806 300.400,141.221 300.985,140.575 301.700 M131.000 303.200 L 123.800 303.428 130.800 303.486 C 134.650 303.518,138.160 303.389,138.600 303.200 C 139.040 303.011,139.130 302.882,138.800 302.914 C 138.470 302.946,134.960 303.075,131.000 303.200 M185.900 303.482 C 186.395 303.578,187.205 303.578,187.700 303.482 C 188.195 303.387,187.790 303.309,186.800 303.309 C 185.810 303.309,185.405 303.387,185.900 303.482 M122.880 304.080 C 122.559 304.401,122.400 306.173,122.400 309.418 C 122.400 315.700,122.383 315.681,127.848 315.499 L 131.800 315.367 127.780 315.284 C 125.293 315.232,123.577 315.017,123.280 314.720 C 122.675 314.115,122.620 305.483,123.214 304.374 C 123.688 303.488,123.573 303.387,122.880 304.080 M202.151 309.600 C 202.151 312.130,202.216 313.165,202.296 311.900 C 202.375 310.635,202.375 308.565,202.296 307.300 C 202.216 306.035,202.151 307.070,202.151 309.600 M140.000 314.775 C 138.130 314.899,148.210 315.000,162.400 315.000 C 176.590 315.000,186.490 314.885,184.400 314.745 C 179.793 314.435,144.761 314.459,140.000 314.775 M194.515 315.496 C 195.788 315.576,197.768 315.575,198.915 315.494 C 200.062 315.414,199.020 315.349,196.600 315.350 C 194.180 315.351,193.242 315.416,194.515 315.496 " stroke="none" fill="#94acc4" fill-rule="evenodd"></path><path id="path4" d="M277.755 148.600 C 277.756 151.460,277.820 152.578,277.897 151.083 C 277.974 149.589,277.974 147.249,277.896 145.883 C 277.818 144.518,277.755 145.740,277.755 148.600 M178.958 281.800 C 178.958 284.880,179.021 286.087,179.097 284.482 C 179.173 282.878,179.173 280.358,179.096 278.882 C 179.019 277.407,178.957 278.720,178.958 281.800 M191.300 303.497 C 193.005 303.572,195.795 303.572,197.500 303.497 C 199.205 303.422,197.810 303.361,194.400 303.361 C 190.990 303.361,189.595 303.422,191.300 303.497 M145.113 315.095 C 146.276 315.176,148.076 315.176,149.113 315.093 C 150.151 315.011,149.200 314.945,147.000 314.946 C 144.800 314.947,143.951 315.014,145.113 315.095 M175.315 315.096 C 176.588 315.176,178.568 315.175,179.715 315.094 C 180.862 315.014,179.820 314.949,177.400 314.950 C 174.980 314.951,174.042 315.016,175.315 315.096 M125.107 315.890 C 125.826 315.979,126.906 315.977,127.507 315.886 C 128.108 315.795,127.520 315.722,126.200 315.724 C 124.880 315.726,124.388 315.801,125.107 315.890 M197.107 315.890 C 197.826 315.979,198.906 315.977,199.507 315.886 C 200.108 315.795,199.520 315.722,198.200 315.724 C 196.880 315.726,196.388 315.801,197.107 315.890 " stroke="none" fill="#92a4bc" fill-rule="evenodd"></path></g></svg>