<svg id="svg" version="1.1" xmlns="http://www.w3.org/2000/svg" xmlns:xlink="http://www.w3.org/1999/xlink" width="400" height="400" viewBox="0, 0, 400,400"><g id="svgg"><path id="path0" d="M257.129 85.836 C 240.877 87.910,232.143 96.970,230.672 113.281 C 228.802 134.021,230.901 150.325,236.451 158.160 C 242.907 167.276,256.908 171.167,271.973 168.033 C 288.912 164.508,295.878 153.720,295.911 130.957 C 295.921 123.731,294.791 123.346,275.586 124.026 C 264.900 124.404,264.755 124.481,264.875 129.702 C 264.970 133.836,264.774 133.694,270.943 134.089 C 282.290 134.815,283.194 135.651,281.183 143.555 C 279.697 149.395,277.527 152.497,273.225 154.935 C 262.612 160.949,248.465 156.323,245.429 145.845 C 243.727 139.973,243.604 115.135,245.247 109.082 C 247.382 101.217,254.515 96.431,263.648 96.736 C 269.653 96.937,273.472 98.650,278.491 103.394 C 281.952 106.667,282.378 106.776,286.483 105.445 C 291.833 103.709,292.771 102.610,291.341 99.750 C 286.478 90.024,271.630 83.986,257.129 85.836 M124.219 135.171 C 92.575 135.778,89.375 136.011,88.639 137.767 C 87.391 140.743,89.885 142.524,97.692 144.232 C 109.384 146.789,108.814 143.078,109.094 218.555 C 109.227 254.469,109.084 266.592,108.500 268.814 C 107.165 273.887,103.669 276.300,94.922 278.187 C 89.586 279.338,87.854 280.770,88.437 283.548 C 89.017 286.316,90.174 286.424,117.383 286.235 C 153.848 285.982,154.688 285.903,154.688 282.717 C 154.688 279.839,154.344 279.638,147.339 278.425 C 131.032 275.603,131.193 275.958,130.655 241.797 C 130.266 217.099,129.920 217.885,140.806 218.716 C 151.130 219.503,150.702 219.192,159.675 232.422 C 187.727 273.779,197.515 283.355,215.460 286.998 C 227.492 289.440,237.284 288.706,239.399 285.202 C 241.116 282.356,239.414 280.540,233.321 278.717 C 222.217 275.395,213.798 268.465,197.490 249.219 C 188.866 239.041,176.982 222.830,174.677 218.098 L 174.121 216.958 174.609 216.562 C 175.341 215.970,177.422 214.964,180.422 213.755 C 191.503 209.286,201.674 200.327,206.579 190.714 C 214.259 175.661,211.217 159.030,198.730 147.813 C 185.492 135.921,175.307 134.193,124.219 135.171 M162.793 147.070 C 192.159 151.129,196.770 190.639,169.385 203.556 C 162.459 206.824,135.672 208.868,131.671 206.435 C 130.768 205.886,130.759 205.673,130.795 186.035 C 130.862 149.247,131.217 147.771,140.234 146.873 C 142.546 146.643,160.863 146.803,162.793 147.070 " stroke="none" fill="#fbfbfb" fill-rule="evenodd"></path><path id="path1" d="M179.199 0.222 C 68.136 12.405,-11.308 111.541,1.183 222.363 C 11.781 316.386,87.169 390.343,181.445 399.203 C 291.176 409.515,388.647 329.218,399.610 219.480 C 400.188 213.687,400.193 185.486,399.616 179.770 C 390.108 85.543,316.353 10.823,222.555 0.394 C 218.742 -0.030,182.797 -0.172,179.199 0.222 M268.432 85.841 C 277.796 87.068,285.334 91.070,289.943 97.260 C 293.440 101.957,292.790 103.539,286.533 105.556 C 282.303 106.921,281.891 106.813,278.323 103.413 C 266.837 92.465,248.905 95.499,245.411 108.980 C 243.624 115.878,243.811 140.887,245.691 146.350 C 247.959 152.942,254.040 157.045,262.012 157.360 C 273.306 157.808,281.074 150.808,281.775 139.551 C 282.031 135.451,280.571 134.757,270.483 134.185 C 264.829 133.864,264.746 133.795,264.746 129.429 C 264.746 125.429,265.048 124.931,267.792 124.411 C 271.261 123.753,289.783 123.510,292.127 124.092 C 295.852 125.016,296.468 126.809,295.911 135.107 C 294.920 149.876,291.907 157.531,285.084 162.623 C 277.646 168.173,264.435 170.635,253.777 168.458 C 234.451 164.510,228.422 151.375,230.291 117.285 C 230.943 105.382,232.424 100.917,237.713 94.915 C 244.165 87.594,255.734 84.176,268.432 85.841 M162.793 135.159 C 181.107 136.210,189.354 139.098,198.852 147.785 C 221.143 168.172,211.327 201.446,179.199 214.408 C 176.348 215.558,174.649 216.467,174.469 216.936 C 173.930 218.341,187.443 237.184,197.551 249.121 C 213.761 268.265,222.393 275.394,233.174 278.541 C 239.218 280.306,241.092 282.147,239.666 284.920 C 237.792 288.564,228.848 289.583,217.188 287.482 C 198.164 284.053,188.033 274.499,160.884 234.388 C 150.658 219.280,151.195 219.719,141.992 218.935 C 130.118 217.922,130.511 217.258,130.743 237.988 C 131.168 275.989,130.959 275.485,147.457 278.320 C 154.530 279.536,154.777 279.677,154.782 282.509 C 154.787 284.930,154.263 285.291,150.098 285.741 C 145.264 286.263,97.075 286.585,92.589 286.125 C 89.046 285.761,88.445 285.321,88.314 282.996 C 88.154 280.162,89.799 279.107,96.673 277.635 C 103.454 276.183,106.926 273.644,108.289 269.141 C 108.942 266.984,109.034 259.361,108.908 217.480 C 108.687 144.015,109.069 146.773,98.828 144.623 C 90.749 142.927,88.139 141.483,88.326 138.810 C 88.533 135.853,89.992 135.684,119.824 135.154 C 126.377 135.037,132.925 134.915,134.375 134.881 C 139.427 134.764,159.302 134.958,162.793 135.159 M140.137 146.996 C 132.101 148.109,131.441 149.793,131.036 170.215 C 130.815 181.352,130.878 205.341,131.130 205.890 C 132.023 207.842,150.958 207.634,162.290 205.549 C 183.583 201.632,194.541 176.805,182.757 159.181 C 178.941 153.476,171.007 148.535,163.731 147.334 C 161.906 147.032,141.936 146.746,140.137 146.996 " stroke="none" fill="#04d4ac" fill-rule="evenodd"></path><path id="path2" d="M278.507 103.564 C 279.317 104.427,279.492 104.582,279.492 104.435 C 279.492 104.404,279.075 103.986,278.564 103.507 L 277.637 102.637 278.507 103.564 M244.186 119.531 C 244.186 119.907,244.226 120.061,244.275 119.873 C 244.324 119.685,244.324 119.377,244.275 119.189 C 244.226 119.001,244.186 119.155,244.186 119.531 M230.123 120.508 C 230.123 120.884,230.164 121.038,230.213 120.850 C 230.262 120.662,230.262 120.354,230.213 120.166 C 230.164 119.978,230.123 120.132,230.123 120.508 M285.113 123.776 C 285.572 123.817,286.275 123.817,286.675 123.775 C 287.075 123.733,286.699 123.699,285.840 123.700 C 284.980 123.700,284.653 123.735,285.113 123.776 M275.930 123.966 C 276.173 124.013,276.525 124.011,276.711 123.962 C 276.898 123.913,276.699 123.875,276.270 123.877 C 275.840 123.880,275.687 123.920,275.930 123.966 M264.721 129.297 C 264.721 130.425,264.753 130.886,264.792 130.322 C 264.832 129.758,264.832 128.835,264.792 128.271 C 264.753 127.708,264.721 128.169,264.721 129.297 M143.018 134.912 C 144.387 134.945,146.628 134.945,147.998 134.912 C 149.368 134.878,148.247 134.851,145.508 134.851 C 142.769 134.851,141.648 134.878,143.018 134.912 M127.100 135.102 C 127.449 135.146,128.020 135.146,128.369 135.102 C 128.718 135.059,128.433 135.023,127.734 135.023 C 127.036 135.023,126.750 135.059,127.100 135.102 M116.650 135.296 C 116.946 135.341,117.429 135.341,117.725 135.296 C 118.020 135.251,117.778 135.215,117.188 135.215 C 116.597 135.215,116.355 135.251,116.650 135.296 M107.473 135.492 C 107.770 135.537,108.210 135.535,108.450 135.489 C 108.690 135.443,108.447 135.406,107.910 135.407 C 107.373 135.409,107.177 135.447,107.473 135.492 M100.635 135.682 C 100.823 135.731,101.130 135.731,101.318 135.682 C 101.506 135.632,101.353 135.592,100.977 135.592 C 100.601 135.592,100.447 135.632,100.635 135.682 M281.885 138.770 C 281.887 139.199,281.927 139.352,281.974 139.109 C 282.021 138.866,282.019 138.515,281.970 138.328 C 281.921 138.141,281.883 138.340,281.885 138.770 M146.338 146.826 C 147.815 146.859,150.232 146.859,151.709 146.826 C 153.186 146.793,151.978 146.765,149.023 146.765 C 146.069 146.765,144.861 146.793,146.338 146.826 M130.923 169.629 C 130.924 170.381,130.960 170.665,131.002 170.259 C 131.044 169.854,131.043 169.239,131.000 168.892 C 130.957 168.545,130.923 168.877,130.923 169.629 M108.654 171.387 C 108.655 172.031,108.692 172.271,108.735 171.920 C 108.779 171.569,108.778 171.042,108.733 170.748 C 108.689 170.455,108.653 170.742,108.654 171.387 M187.567 175.098 C 187.568 175.957,187.602 176.284,187.643 175.825 C 187.685 175.366,187.684 174.662,187.642 174.262 C 187.600 173.862,187.566 174.238,187.567 175.098 M130.748 190.820 C 130.748 193.345,130.776 194.377,130.810 193.115 C 130.844 191.853,130.844 189.788,130.810 188.525 C 130.776 187.263,130.748 188.296,130.748 190.820 M108.869 191.211 C 108.869 193.091,108.899 193.860,108.934 192.920 C 108.970 191.980,108.970 190.442,108.934 189.502 C 108.899 188.562,108.869 189.331,108.869 191.211 M143.411 207.367 C 143.708 207.412,144.147 207.410,144.387 207.364 C 144.628 207.318,144.385 207.281,143.848 207.282 C 143.311 207.284,143.114 207.322,143.411 207.367 M135.500 218.498 C 135.743 218.544,136.095 218.542,136.282 218.494 C 136.468 218.445,136.270 218.406,135.840 218.409 C 135.410 218.411,135.257 218.451,135.500 218.498 M109.074 230.469 C 109.074 235.142,109.099 237.053,109.131 234.717 C 109.162 232.380,109.162 228.557,109.131 226.221 C 109.099 223.884,109.074 225.796,109.074 230.469 M109.069 245.313 C 109.069 247.944,109.096 249.021,109.130 247.705 C 109.164 246.389,109.164 244.236,109.130 242.920 C 109.096 241.604,109.069 242.681,109.069 245.313 M130.727 243.555 C 130.727 244.253,130.762 244.539,130.805 244.189 C 130.849 243.840,130.849 243.269,130.805 242.920 C 130.762 242.571,130.727 242.856,130.727 243.555 M130.913 254.688 C 130.913 255.171,130.951 255.369,130.997 255.127 C 131.044 254.885,131.044 254.490,130.997 254.248 C 130.951 254.006,130.913 254.204,130.913 254.688 M108.834 262.891 C 108.834 263.267,108.875 263.420,108.924 263.232 C 108.973 263.044,108.973 262.737,108.924 262.549 C 108.875 262.361,108.834 262.515,108.834 262.891 M142.139 286.075 C 142.380 286.122,142.776 286.122,143.018 286.075 C 143.259 286.029,143.062 285.991,142.578 285.991 C 142.095 285.991,141.897 286.029,142.139 286.075 M125.537 286.277 C 126.208 286.316,127.307 286.316,127.979 286.277 C 128.650 286.239,128.101 286.208,126.758 286.208 C 125.415 286.208,124.866 286.239,125.537 286.277 " stroke="none" fill="#60e6cc" fill-rule="evenodd"></path><path id="path3" d="M230.319 117.188 C 230.319 117.563,230.359 117.717,230.408 117.529 C 230.457 117.341,230.457 117.034,230.408 116.846 C 230.359 116.658,230.319 116.812,230.319 117.188 M230.131 121.875 C 230.131 122.358,230.169 122.556,230.216 122.314 C 230.263 122.073,230.263 121.677,230.216 121.436 C 230.169 121.194,230.131 121.392,230.131 121.875 M277.393 123.968 C 277.688 124.013,278.171 124.013,278.467 123.968 C 278.762 123.923,278.521 123.887,277.930 123.887 C 277.339 123.887,277.097 123.923,277.393 123.968 M271.924 124.158 C 272.112 124.207,272.419 124.207,272.607 124.158 C 272.795 124.109,272.642 124.069,272.266 124.069 C 271.890 124.069,271.736 124.109,271.924 124.158 M244.008 126.758 C 244.008 127.456,244.043 127.742,244.087 127.393 C 244.130 127.043,244.130 126.472,244.087 126.123 C 244.043 125.774,244.008 126.060,244.008 126.758 M295.952 129.492 C 295.952 129.976,295.990 130.173,296.036 129.932 C 296.083 129.690,296.083 129.294,296.036 129.053 C 295.990 128.811,295.952 129.009,295.952 129.492 M295.954 131.543 C 295.956 132.080,295.994 132.277,296.039 131.980 C 296.083 131.683,296.082 131.243,296.036 131.003 C 295.990 130.763,295.953 131.006,295.954 131.543 M230.123 134.180 C 230.123 134.556,230.164 134.709,230.213 134.521 C 230.262 134.333,230.262 134.026,230.213 133.838 C 230.164 133.650,230.123 133.804,230.123 134.180 M269.971 134.119 C 270.159 134.168,270.466 134.168,270.654 134.119 C 270.842 134.070,270.688 134.030,270.313 134.030 C 269.937 134.030,269.783 134.070,269.971 134.119 M244.190 135.059 C 244.192 135.488,244.232 135.641,244.279 135.398 C 244.325 135.155,244.324 134.804,244.275 134.617 C 244.226 134.430,244.188 134.629,244.190 135.059 M129.644 135.104 C 130.103 135.145,130.806 135.145,131.206 135.103 C 131.606 135.061,131.230 135.027,130.371 135.028 C 129.512 135.029,129.184 135.063,129.644 135.104 M157.080 135.101 C 157.375 135.146,157.859 135.146,158.154 135.101 C 158.450 135.056,158.208 135.019,157.617 135.019 C 157.026 135.019,156.785 135.056,157.080 135.101 M118.799 135.299 C 119.202 135.341,119.861 135.341,120.264 135.299 C 120.667 135.256,120.337 135.222,119.531 135.222 C 118.726 135.222,118.396 135.256,118.799 135.299 M109.326 135.493 C 109.675 135.536,110.247 135.536,110.596 135.493 C 110.945 135.450,110.659 135.414,109.961 135.414 C 109.263 135.414,108.977 135.450,109.326 135.493 M102.005 135.687 C 102.302 135.732,102.741 135.731,102.981 135.684 C 103.221 135.638,102.979 135.601,102.441 135.603 C 101.904 135.604,101.708 135.642,102.005 135.687 M96.729 135.877 C 96.917 135.926,97.224 135.926,97.412 135.877 C 97.600 135.828,97.446 135.788,97.070 135.788 C 96.694 135.788,96.541 135.828,96.729 135.877 M142.236 146.820 C 142.532 146.864,143.015 146.864,143.311 146.820 C 143.606 146.775,143.364 146.738,142.773 146.738 C 142.183 146.738,141.941 146.775,142.236 146.820 M155.133 146.823 C 155.646 146.864,156.437 146.863,156.891 146.822 C 157.344 146.781,156.924 146.748,155.957 146.749 C 154.990 146.750,154.619 146.783,155.133 146.823 M261.672 157.560 C 261.915 157.607,262.267 157.605,262.453 157.556 C 262.640 157.507,262.441 157.469,262.012 157.471 C 261.582 157.473,261.429 157.513,261.672 157.560 M263.625 157.560 C 263.868 157.607,264.220 157.605,264.407 157.556 C 264.593 157.507,264.395 157.469,263.965 157.471 C 263.535 157.473,263.382 157.513,263.625 157.560 M131.100 160.742 C 131.100 161.118,131.140 161.272,131.189 161.084 C 131.238 160.896,131.238 160.588,131.189 160.400 C 131.140 160.212,131.100 160.366,131.100 160.742 M108.448 162.988 C 108.450 163.418,108.490 163.571,108.537 163.328 C 108.583 163.085,108.582 162.733,108.533 162.547 C 108.484 162.360,108.446 162.559,108.448 162.988 M130.928 166.797 C 130.928 167.710,130.961 168.083,131.002 167.627 C 131.044 167.170,131.044 166.423,131.002 165.967 C 130.961 165.510,130.928 165.884,130.928 166.797 M108.654 169.238 C 108.655 169.883,108.692 170.123,108.735 169.772 C 108.779 169.421,108.778 168.894,108.733 168.600 C 108.689 168.307,108.653 168.594,108.654 169.238 M210.809 173.926 C 210.810 174.785,210.844 175.112,210.885 174.653 C 210.927 174.194,210.926 173.491,210.884 173.091 C 210.842 172.691,210.808 173.066,210.809 173.926 M130.744 183.203 C 130.744 184.976,130.773 185.701,130.809 184.814 C 130.846 183.928,130.846 182.478,130.809 181.592 C 130.773 180.706,130.744 181.431,130.744 183.203 M108.871 184.180 C 108.871 186.274,108.900 187.131,108.935 186.084 C 108.970 185.037,108.970 183.323,108.935 182.275 C 108.900 181.228,108.871 182.085,108.871 184.180 M130.741 197.852 C 130.741 199.302,130.771 199.895,130.809 199.170 C 130.846 198.445,130.846 197.258,130.809 196.533 C 130.771 195.808,130.741 196.401,130.741 197.852 M198.530 201.611 L 197.168 203.027 198.584 201.665 C 199.899 200.400,200.089 200.195,199.946 200.195 C 199.916 200.195,199.279 200.833,198.530 201.611 M136.963 207.361 C 137.151 207.410,137.458 207.410,137.646 207.361 C 137.834 207.312,137.681 207.272,137.305 207.272 C 136.929 207.272,136.775 207.312,136.963 207.361 M145.071 207.365 C 145.314 207.411,145.665 207.410,145.852 207.361 C 146.039 207.312,145.840 207.274,145.410 207.276 C 144.980 207.278,144.828 207.318,145.071 207.365 M109.069 217.188 C 109.069 219.927,109.097 221.047,109.130 219.678 C 109.164 218.308,109.164 216.067,109.130 214.697 C 109.097 213.328,109.069 214.448,109.069 217.188 M130.553 231.250 C 130.553 233.774,130.581 234.807,130.615 233.545 C 130.649 232.283,130.649 230.217,130.615 228.955 C 130.581 227.693,130.553 228.726,130.553 231.250 M130.735 246.582 C 130.736 247.656,130.769 248.071,130.808 247.503 C 130.848 246.936,130.847 246.057,130.807 245.550 C 130.767 245.043,130.735 245.508,130.735 246.582 M109.064 253.223 C 109.064 255.049,109.093 255.822,109.130 254.941 C 109.166 254.060,109.166 252.566,109.130 251.621 C 109.094 250.676,109.065 251.396,109.064 253.223 M130.915 256.348 C 130.917 256.885,130.955 257.081,131.000 256.784 C 131.044 256.488,131.043 256.048,130.997 255.808 C 130.951 255.568,130.914 255.811,130.915 256.348 M108.842 264.258 C 108.842 264.741,108.880 264.939,108.927 264.697 C 108.973 264.456,108.973 264.060,108.927 263.818 C 108.880 263.577,108.842 263.774,108.842 264.258 M139.313 286.081 C 139.826 286.122,140.617 286.121,141.070 286.080 C 141.524 286.039,141.104 286.006,140.137 286.007 C 139.170 286.007,138.799 286.041,139.313 286.081 M95.947 286.273 C 96.243 286.317,96.726 286.317,97.021 286.273 C 97.317 286.228,97.075 286.191,96.484 286.191 C 95.894 286.191,95.652 286.228,95.947 286.273 M119.092 286.278 C 120.085 286.314,121.711 286.314,122.705 286.278 C 123.699 286.243,122.886 286.214,120.898 286.214 C 118.911 286.214,118.098 286.243,119.092 286.278 " stroke="none" fill="#9cefdf" fill-rule="evenodd"></path><path id="path4" d="M260.696 85.490 C 260.939 85.536,261.290 85.535,261.477 85.486 C 261.664 85.437,261.465 85.399,261.035 85.401 C 260.605 85.403,260.453 85.443,260.696 85.490 M263.037 85.489 C 263.279 85.536,263.674 85.536,263.916 85.489 C 264.158 85.443,263.960 85.405,263.477 85.405 C 262.993 85.405,262.795 85.443,263.037 85.489 M249.404 101.904 L 248.730 102.637 249.463 101.964 C 250.145 101.337,250.285 101.172,250.136 101.172 C 250.103 101.172,249.774 101.501,249.404 101.904 M244.186 120.703 C 244.186 121.079,244.226 121.233,244.275 121.045 C 244.324 120.857,244.324 120.549,244.275 120.361 C 244.226 120.173,244.186 120.327,244.186 120.703 M282.861 123.773 C 283.157 123.817,283.640 123.817,283.936 123.773 C 284.231 123.728,283.989 123.691,283.398 123.691 C 282.808 123.691,282.566 123.728,282.861 123.773 M287.549 123.767 C 287.737 123.817,288.044 123.817,288.232 123.767 C 288.420 123.718,288.267 123.678,287.891 123.678 C 287.515 123.678,287.361 123.718,287.549 123.767 M274.658 123.963 C 274.846 124.012,275.154 124.012,275.342 123.963 C 275.530 123.914,275.376 123.873,275.000 123.873 C 274.624 123.873,274.470 123.914,274.658 123.963 M229.961 128.320 C 229.961 129.985,229.991 130.667,230.028 129.834 C 230.065 129.001,230.065 127.639,230.028 126.807 C 229.991 125.974,229.961 126.655,229.961 128.320 M244.190 132.715 C 244.192 133.145,244.232 133.297,244.279 133.054 C 244.325 132.811,244.324 132.460,244.275 132.273 C 244.226 132.086,244.188 132.285,244.190 132.715 M137.848 134.910 C 138.416 134.949,139.295 134.949,139.801 134.909 C 140.308 134.869,139.844 134.836,138.770 134.837 C 137.695 134.837,137.281 134.870,137.848 134.910 M150.923 134.907 C 151.270 134.950,151.885 134.950,152.291 134.908 C 152.696 134.866,152.412 134.831,151.660 134.830 C 150.908 134.829,150.577 134.863,150.923 134.907 M124.955 135.102 C 125.306 135.146,125.833 135.145,126.127 135.100 C 126.420 135.056,126.133 135.020,125.488 135.021 C 124.844 135.023,124.604 135.059,124.955 135.102 M114.603 135.298 C 114.954 135.341,115.481 135.340,115.775 135.296 C 116.068 135.251,115.781 135.216,115.137 135.217 C 114.492 135.218,114.252 135.254,114.603 135.298 M105.811 135.489 C 106.052 135.536,106.448 135.536,106.689 135.489 C 106.931 135.443,106.733 135.405,106.250 135.405 C 105.767 135.405,105.569 135.443,105.811 135.489 M99.463 135.682 C 99.651 135.731,99.958 135.731,100.146 135.682 C 100.334 135.632,100.181 135.592,99.805 135.592 C 99.429 135.592,99.275 135.632,99.463 135.682 M276.552 152.295 L 275.879 153.027 276.611 152.354 C 277.293 151.728,277.434 151.563,277.284 151.563 C 277.252 151.563,276.922 151.892,276.552 152.295 M179.484 155.322 C 179.963 155.833,180.380 156.250,180.412 156.250 C 180.558 156.250,180.403 156.075,179.541 155.265 L 178.613 154.395 179.484 155.322 M287.390 160.596 L 286.816 161.230 287.451 160.657 C 288.043 160.122,288.176 159.961,288.025 159.961 C 287.991 159.961,287.706 160.247,287.390 160.596 M108.444 165.039 C 108.444 165.415,108.484 165.569,108.533 165.381 C 108.582 165.193,108.582 164.885,108.533 164.697 C 108.484 164.509,108.444 164.663,108.444 165.039 M260.791 169.284 C 261.301 169.324,262.136 169.324,262.646 169.284 C 263.157 169.244,262.739 169.211,261.719 169.211 C 260.698 169.211,260.281 169.244,260.791 169.284 M130.931 172.754 C 130.931 173.828,130.964 174.243,131.004 173.675 C 131.043 173.108,131.043 172.229,131.003 171.722 C 130.963 171.215,130.930 171.680,130.931 172.754 M108.656 173.633 C 108.656 174.331,108.692 174.617,108.735 174.268 C 108.778 173.918,108.778 173.347,108.735 172.998 C 108.692 172.649,108.656 172.935,108.656 173.633 M108.869 197.656 C 108.869 199.429,108.898 200.154,108.934 199.268 C 108.971 198.381,108.971 196.931,108.934 196.045 C 108.898 195.159,108.869 195.884,108.869 197.656 M178.210 197.314 L 177.637 197.949 178.271 197.376 C 178.621 197.060,178.906 196.774,178.906 196.741 C 178.906 196.590,178.745 196.723,178.210 197.314 M139.900 207.371 C 140.521 207.410,141.488 207.410,142.048 207.370 C 142.608 207.331,142.100 207.299,140.918 207.300 C 139.736 207.300,139.278 207.332,139.900 207.371 M109.040 239.746 C 109.042 240.283,109.080 240.480,109.125 240.183 C 109.169 239.886,109.168 239.447,109.122 239.206 C 109.076 238.966,109.039 239.209,109.040 239.746 M130.725 241.309 C 130.726 241.953,130.762 242.193,130.806 241.842 C 130.849 241.491,130.848 240.964,130.804 240.670 C 130.759 240.377,130.723 240.664,130.725 241.309 M130.915 253.027 C 130.917 253.564,130.955 253.761,131.000 253.464 C 131.044 253.167,131.043 252.728,130.997 252.488 C 130.951 252.247,130.914 252.490,130.915 253.027 M108.845 261.426 C 108.846 261.963,108.884 262.159,108.929 261.863 C 108.974 261.566,108.973 261.126,108.927 260.886 C 108.880 260.646,108.843 260.889,108.845 261.426 M208.691 261.719 C 209.111 262.148,209.498 262.500,209.552 262.500 C 209.606 262.500,209.306 262.148,208.887 261.719 C 208.467 261.289,208.080 260.938,208.026 260.938 C 207.972 260.938,208.272 261.289,208.691 261.719 M212.598 265.625 C 213.017 266.055,213.404 266.406,213.458 266.406 C 213.512 266.406,213.213 266.055,212.793 265.625 C 212.373 265.195,211.986 264.844,211.932 264.844 C 211.879 264.844,212.178 265.195,212.598 265.625 M190.332 273.047 C 191.186 273.906,191.929 274.609,191.983 274.609 C 192.037 274.609,191.382 273.906,190.527 273.047 C 189.673 272.188,188.930 271.484,188.876 271.484 C 188.823 271.484,189.478 272.188,190.332 273.047 M143.703 286.076 C 143.946 286.122,144.298 286.121,144.485 286.072 C 144.671 286.023,144.473 285.985,144.043 285.987 C 143.613 285.989,143.460 286.029,143.703 286.076 M130.127 286.277 C 130.745 286.316,131.755 286.316,132.373 286.277 C 132.991 286.238,132.485 286.207,131.250 286.207 C 130.015 286.207,129.509 286.238,130.127 286.277 " stroke="none" fill="#3cdcc4" fill-rule="evenodd"></path></g></svg>